<?xml version="1.0" encoding="UTF-8"?>
<svg xmlns="http://www.w3.org/2000/svg" xmlns:xlink="http://www.w3.org/1999/xlink" version="1.2" >
<font id="Future City Bold Italic">
<font-face  font-family="Future City" units-per-em="1000" ascent="950" descent="-216" font-style="italic" font-weight="700" font-stretch="normal" slope="-10" cap-height="700" x-height="500" underline-position="-75" underline-thickness="50" />
<missing-glyph  horiz-adv-x="526" d="M26 0 L526 0 L526 700 L26 700 L26 0 Z M276 395 L106 650 L446 650 L276 395 Z M306 350 L476 605 L476 95 L306 350 Z M106 50 L276 305 L446 50 L106 50 Z M76 605 L246 350 L76 95 L76 605 Z " />
<glyph glyph-name="NULL" d="" />
<glyph glyph-name="CR" unicode="&#xd;" horiz-adv-x="250" d="" />
<glyph glyph-name="space" unicode="&#x20;" horiz-adv-x="280" d="" />
<glyph glyph-name="exclam" unicode="&#x21;" horiz-adv-x="237" d="M226 656 C231 686 212 711 181 711 C151 711 122 686 116 656 L43 241 C38 210 59 186 89 186 C118 186 147 210 152 241 L226 656 Z M54 -9 C93 -9 131 23 138 62 C145 101 117 134 79 134 C39 134 2 101 -4 62 C-12 23 14 -9 54 -9 L54 -9 Z " />
<glyph glyph-name="quotedbl" unicode="&#x22;" horiz-adv-x="442" d="M17 432 C12 409 25 394 45 394 C64 394 76 406 86 425 L199 647 C202 655 205 662 206 669 C210 690 198 702 180 702 L140 702 C108 702 81 678 74 646 L17 432 Z M238 432 C232 409 245 394 263 394 C282 394 295 406 306 425 L417 647 C421 655 425 662 426 669 C429 690 417 702 399 702 L359 702 C326 702 299 678 292 646 L238 432 Z " />
<glyph glyph-name="numbersign" unicode="&#x23;" horiz-adv-x="677" d="M187 161 L344 161 L305 52 C293 21 313 -9 346 -9 C371 -9 397 9 405 34 L450 161 L525 161 C554 161 581 185 585 213 C591 242 572 265 543 265 L486 265 L546 439 L611 439 C638 439 667 463 671 491 C677 520 656 543 629 543 L583 543 L619 650 C630 681 612 711 579 711 C553 711 527 694 519 668 L476 543 L319 543 L356 650 C366 681 349 711 315 711 C290 711 264 694 256 668 L213 543 L137 543 C108 543 81 518 76 491 C71 463 90 439 119 439 L176 439 L116 265 L52 265 C23 265 -4 241 -9 213 C-15 184 5 161 33 161 L80 161 L43 52 C30 18 50 -9 83 -9 C113 -9 135 12 143 34 L187 161 Z M283 439 L439 439 L379 265 L223 265 L283 439 Z " />
<glyph glyph-name="dollar" unicode="&#x24;" horiz-adv-x="587" d="M564 648 C531 679 488 701 434 709 L438 733 C443 756 427 772 404 772 C382 772 362 756 359 733 L355 711 C227 699 126 618 108 518 C84 382 201 342 286 322 L247 100 C188 104 150 134 114 188 C98 212 69 225 31 196 C-4 170 4 137 17 112 C63 34 128 -2 229 -5 L220 -54 C216 -76 229 -92 252 -92 C274 -92 295 -76 299 -54 L309 2 C417 26 523 106 543 220 C564 334 481 380 380 406 L415 603 C444 593 465 577 482 562 C503 543 528 540 558 571 C586 599 583 629 564 648 L564 648 Z M217 522 C223 563 267 605 337 611 L304 425 C226 447 208 475 217 522 L217 522 Z M433 215 C423 160 381 124 328 108 L362 303 C424 282 440 257 433 215 L433 215 Z " />
<glyph glyph-name="ampersand" unicode="&#x26;" horiz-adv-x="653" d="M392 255 L389 238 C376 163 303 93 228 93 C143 93 93 148 108 233 C118 285 169 343 217 365 C226 369 254 379 260 409 C263 426 255 437 243 449 C225 462 212 495 216 522 C225 566 272 605 314 605 C358 605 385 561 376 517 C371 485 392 461 423 461 C455 461 483 486 489 517 C507 622 437 707 332 707 C228 707 123 622 105 517 C98 481 106 448 130 417 C62 373 12 309 -1 238 C-27 92 65 -7 210 -7 C346 -7 475 102 499 238 L502 255 L513 255 C543 255 569 279 574 307 C580 335 561 358 532 358 L341 358 C313 358 285 335 281 307 C275 279 295 255 323 255 L392 255 Z " />
<glyph glyph-name="quotesingle" unicode="&#x27;" horiz-adv-x="224" d="M18 432 C12 409 25 394 45 394 C64 394 77 406 88 425 L200 647 C203 655 206 662 207 669 C211 690 198 702 179 702 L141 702 C107 702 81 678 73 646 L18 432 Z " />
<glyph glyph-name="parenleft" unicode="&#x28;" horiz-adv-x="370" d="M97 -50 C134 -83 179 -89 210 -89 C245 -89 278 -61 284 -26 C290 9 267 38 232 38 C213 38 202 42 192 51 C147 88 148 211 168 311 C182 398 205 470 240 522 C265 562 290 584 328 584 C363 584 396 613 403 648 C408 682 386 711 351 711 C306 711 262 697 225 671 C112 595 64 443 41 311 C15 160 21 20 97 -50 L97 -50 Z " />
<glyph glyph-name="parenright" unicode="&#x29;" horiz-adv-x="370" d="M273 672 C236 705 191 711 160 711 C125 711 92 683 86 648 C80 613 103 584 138 584 C157 584 168 580 178 571 C223 534 222 411 202 311 C188 224 165 152 130 100 C105 60 80 38 42 38 C7 38 -26 9 -33 -26 C-38 -60 -16 -89 19 -89 C64 -89 108 -75 145 -49 C258 27 306 179 329 311 C355 462 349 602 273 672 L273 672 Z " />
<glyph glyph-name="asterisk" unicode="&#x2a;" horiz-adv-x="370" d="M172 504 L146 414 C140 393 151 377 171 377 C190 377 207 394 208 415 L214 504 L279 449 C288 443 294 439 302 439 C320 439 339 454 342 472 C344 488 336 499 324 504 L243 542 L338 581 C351 587 363 596 366 612 C370 630 357 645 339 645 C330 645 323 642 312 635 L228 580 L254 670 C260 691 249 707 229 707 C210 707 193 690 192 669 L186 580 L121 635 C113 642 107 645 98 645 C80 645 61 630 58 612 C56 597 64 587 76 581 L157 542 L62 504 C51 499 37 488 34 473 C30 455 43 439 61 439 C70 439 77 443 88 449 L172 504 Z " />
<glyph glyph-name="plus" unicode="&#x2b;" horiz-adv-x="560" d="M221 297 L197 158 C192 126 212 101 243 101 C274 101 305 126 311 158 L336 297 L478 297 C507 297 536 321 542 352 C548 382 526 407 497 407 L355 407 L379 546 C384 578 363 603 333 603 C301 603 271 578 265 546 L240 407 L98 407 C69 407 39 382 34 352 C28 321 50 297 79 297 L221 297 Z " />
<glyph glyph-name="comma" unicode="&#x2c;" horiz-adv-x="285" d="M33 -119 C31 -134 38 -147 60 -147 C87 -147 130 -130 161 -104 C197 -72 224 -26 236 42 L238 53 C247 107 226 141 182 141 C140 141 108 111 102 74 L100 66 C94 30 118 5 146 -2 C139 -46 109 -77 62 -92 C48 -95 36 -105 33 -119 L33 -119 Z " />
<glyph glyph-name="hyphen" unicode="&#x2d;" horiz-adv-x="345" d="M274 259 C305 259 334 280 340 311 C346 343 324 364 292 364 L102 364 C71 364 42 343 36 311 C30 280 52 259 84 259 L274 259 Z " />
<glyph glyph-name="period" unicode="&#x2e;" horiz-adv-x="257" d="M52 65 C44 24 72 -9 113 -9 C154 -9 194 24 201 65 C209 106 180 140 139 140 C98 140 59 106 52 65 L52 65 Z " />
<glyph glyph-name="slash" unicode="&#x2f;" horiz-adv-x="430" d="M21 -5 C27 -8 35 -9 41 -9 C61 -9 84 3 97 23 L466 635 C483 662 476 696 450 706 C424 718 390 705 373 678 L4 67 C-13 39 -6 7 21 -5 L21 -5 Z " />
<glyph glyph-name="zero" unicode="0" horiz-adv-x="681" d="M371 710 C525 710 616 545 581 351 C547 158 399 -7 245 -7 C92 -7 -5 154 30 351 C64 549 218 710 371 710 L371 710 Z M352 598 C262 598 165 485 141 351 C117 217 175 104 265 104 C356 104 452 217 476 351 C500 485 443 598 352 598 L352 598 Z " />
<glyph glyph-name="one" unicode="1" horiz-adv-x="275" d="M168 547 L79 46 C73 15 94 -9 124 -9 C155 -9 185 15 190 46 L296 645 C302 684 278 700 246 700 C236 700 230 697 219 692 L83 620 C54 604 39 569 52 544 C59 526 76 516 94 516 C103 516 114 518 123 524 L168 547 Z " />
<glyph glyph-name="two" unicode="2" horiz-adv-x="530" d="M506 460 C532 605 464 700 309 700 C243 700 197 686 101 610 C74 588 67 557 83 534 C100 511 135 512 162 533 C232 587 246 594 290 594 C374 594 411 547 396 460 C390 424 357 379 323 353 L-7 96 C-33 77 -41 40 -24 18 C-15 6 -1 0 14 0 L370 0 C401 0 430 24 435 55 C440 86 421 112 390 112 L172 112 L383 276 C444 324 494 395 506 460 L506 460 Z " />
<glyph glyph-name="three" unicode="3" horiz-adv-x="550" d="M197 701 C167 701 138 681 133 650 C126 618 149 598 179 598 L350 598 L240 484 C212 459 203 436 206 420 C208 406 220 397 247 398 C326 396 376 331 362 252 C348 177 276 106 194 106 C158 106 125 120 104 147 C84 170 46 170 24 149 C-3 127 -9 90 10 68 C50 19 111 -7 174 -7 C241 -7 310 19 368 68 C426 118 462 183 473 247 C485 310 471 378 431 426 C414 447 393 464 368 476 L495 604 C506 615 517 628 520 645 C525 676 505 701 472 701 L197 701 Z " />
<glyph glyph-name="four" unicode="4" horiz-adv-x="552" d="M306 142 L289 46 C284 15 304 -9 335 -9 C365 -9 394 15 399 46 L416 142 L446 142 C477 142 505 161 511 192 C516 222 495 242 464 242 L434 242 L508 666 C515 701 486 711 464 711 C441 711 426 702 415 691 L13 231 C-9 206 -12 173 9 154 C18 145 29 142 41 142 L306 142 Z M371 509 L324 242 L160 242 L371 509 Z " />
<glyph glyph-name="five" unicode="5" horiz-adv-x="544" d="M187 700 C170 700 133 688 120 650 L42 380 C35 357 40 346 50 333 C68 311 104 311 130 333 C160 360 201 382 235 382 C331 382 358 314 344 237 C332 168 278 92 184 92 C148 92 118 115 96 142 C78 164 41 164 16 142 C-11 119 -18 83 3 62 C52 -1 123 -11 166 -11 C313 -11 433 99 457 237 C483 385 401 486 273 486 C235 486 206 478 180 461 L219 597 L423 597 C456 598 484 619 489 648 C495 680 474 700 441 700 L187 700 Z " />
<glyph glyph-name="six" unicode="6" horiz-adv-x="582" d="M310 470 C266 470 220 452 189 429 C202 467 231 519 296 560 C325 576 357 587 395 588 C426 591 455 616 459 646 C463 677 441 700 411 699 C353 697 299 680 253 652 C117 571 45 406 20 267 C-6 118 36 -9 216 -9 C349 -9 477 99 502 233 C525 367 434 470 310 470 L310 470 Z M390 233 C378 159 308 97 235 97 C161 97 115 159 128 233 C140 305 209 370 282 370 C355 370 403 305 390 233 L390 233 Z " />
<glyph glyph-name="seven" unicode="7" horiz-adv-x="527" d="M151 700 C122 700 93 681 88 650 C82 620 104 599 133 599 L396 599 L79 67 C63 40 71 8 96 -5 C116 -15 155 -8 173 24 L532 624 C537 634 539 639 541 651 C546 676 526 700 495 700 L151 700 Z " />
<glyph glyph-name="eight" unicode="8" horiz-adv-x="566" d="M415 418 C446 448 467 484 474 526 C492 627 425 707 325 707 C225 707 129 627 111 526 C104 484 112 448 131 418 C66 373 17 306 4 230 C-20 99 68 -7 199 -7 C329 -7 455 99 477 230 C491 306 466 373 415 418 L415 418 Z M223 532 C231 578 270 610 308 610 C347 610 374 578 365 532 C358 487 319 455 280 455 C242 455 216 487 223 532 L223 532 Z M366 227 C353 151 288 93 217 93 C146 93 100 151 114 227 C127 301 192 358 263 358 C334 358 380 301 366 227 L366 227 Z " />
<glyph glyph-name="nine" unicode="9" horiz-adv-x="582" d="M339 699 C206 699 78 591 53 457 C30 323 121 220 245 220 C289 220 335 238 366 261 C353 223 324 171 259 130 C230 114 198 103 160 102 C129 99 100 74 96 44 C92 13 114 -10 144 -9 C202 -7 256 10 302 38 C438 119 510 284 535 423 C561 572 519 699 339 699 L339 699 Z M427 457 C415 385 346 320 273 320 C200 320 152 385 165 457 C177 531 247 593 320 593 C394 593 440 531 427 457 L427 457 Z " />
<glyph glyph-name="colon" unicode="&#x3a;" horiz-adv-x="263" d="M180 540 C138 540 99 506 92 465 C85 424 112 391 153 391 C195 391 234 424 241 465 C249 506 220 540 180 540 L180 540 Z M109 140 C67 140 29 106 22 65 C14 24 42 -9 82 -9 C124 -9 164 24 170 65 C178 106 150 140 109 140 L109 140 Z " />
<glyph glyph-name="semicolon" unicode="&#x3b;" horiz-adv-x="329" d="M153 465 C147 434 173 391 213 391 C254 391 295 424 301 465 C308 505 281 540 239 540 C198 540 160 505 153 465 L153 465 Z M19 -119 C17 -134 24 -147 45 -147 C73 -147 115 -131 147 -104 C183 -72 210 -26 221 42 L224 53 C233 107 212 141 167 141 C126 141 94 112 88 74 L86 66 C79 30 104 6 131 -2 C125 -46 95 -78 48 -92 C34 -94 22 -105 19 -119 L19 -119 Z " />
<glyph glyph-name="less" unicode="&#x3c;" horiz-adv-x="502" d="M184 347 L464 585 C493 612 500 651 479 676 C457 700 418 701 389 676 L58 392 C28 366 19 331 43 304 L273 18 C294 -6 334 -6 363 18 C392 43 400 83 379 108 L184 347 Z " />
<glyph glyph-name="equal" unicode="&#x3d;" horiz-adv-x="355" d="M274 372 C295 372 313 387 316 407 C319 426 307 442 287 442 L101 442 C82 442 62 426 59 407 C55 387 69 372 89 372 L274 372 Z M254 259 C274 259 293 275 296 295 C300 315 287 331 267 331 L82 331 C61 331 42 315 39 295 C36 275 49 259 69 259 L254 259 Z " />
<glyph glyph-name="greater" unicode="&#x3e;" horiz-adv-x="502" d="M318 347 L38 109 C9 82 2 43 23 18 C45 -6 84 -7 113 18 L444 302 C474 328 483 363 459 390 L229 676 C208 700 168 700 139 676 C110 651 102 611 123 586 L318 347 Z " />
<glyph glyph-name="question" unicode="&#x3f;" horiz-adv-x="474" d="M245 307 C339 318 428 400 445 499 C466 615 382 710 267 710 C189 710 114 668 68 606 C49 582 52 553 72 539 C94 525 125 533 144 557 C168 590 209 612 249 612 C312 612 351 563 339 500 C328 438 272 388 210 388 C183 388 157 365 152 339 L131 222 C126 194 146 173 171 173 C200 173 224 194 230 222 L245 307 Z M138 -9 C177 -9 215 23 222 62 C229 101 202 134 163 134 C123 134 86 101 79 62 C72 23 97 -9 138 -9 L138 -9 Z " />
<glyph glyph-name="at" unicode="&#x40;" horiz-adv-x="765" d="M443 700 C251 700 67 543 33 351 C-1 157 128 1 320 0 C350 0 380 4 410 11 C440 19 463 49 461 79 C459 108 430 117 400 109 C380 105 360 102 339 102 C207 102 121 218 145 351 C167 482 295 599 425 599 C559 599 644 482 622 351 C609 280 593 228 549 201 L549 202 L576 351 C596 461 528 554 418 554 C310 554 208 459 189 351 C169 238 235 148 346 148 C381 148 409 153 441 167 C446 134 472 101 521 103 C637 103 714 247 732 351 C766 543 637 700 443 700 L443 700 Z M364 249 C316 249 291 300 300 351 C309 401 352 452 400 452 C449 452 474 401 465 351 C456 300 413 249 364 249 L364 249 Z " />
<glyph glyph-name="A" unicode="A" horiz-adv-x="613" d="M170 170 L409 170 L439 26 C443 4 462 -9 483 -9 C491 -9 498 -8 503 -6 C534 5 554 37 549 66 L430 675 C426 697 408 711 385 710 C362 711 338 697 326 675 L-7 66 C-22 37 -13 5 15 -6 C20 -8 25 -9 33 -9 C55 -9 78 4 91 26 L170 170 Z M389 270 L222 270 L344 490 L389 270 Z " />
<glyph glyph-name="B" unicode="B" horiz-adv-x="560" d="M216 700 C186 700 157 676 151 644 L48 62 C43 31 64 6 94 6 L275 6 C393 6 505 102 526 221 C540 297 511 364 437 402 C487 434 507 470 515 513 C534 618 463 700 358 700 L216 700 Z M225 435 L253 589 L339 589 C382 589 412 557 405 513 C396 469 356 435 311 435 L225 435 Z M169 117 L206 324 L331 324 C388 323 426 278 416 221 C406 163 352 118 294 117 L169 117 Z " />
<glyph glyph-name="C" unicode="C" horiz-adv-x="710" d="M42 351 C7 152 136 -9 346 -9 C434 -9 518 20 590 69 C618 88 629 122 615 147 C599 171 570 177 544 160 C493 124 426 94 364 94 C209 94 131 211 156 351 C180 489 295 608 454 608 C516 608 575 578 612 542 C632 524 663 530 687 555 C709 580 710 613 690 633 C635 682 561 711 473 711 C262 710 77 549 42 351 L42 351 Z " />
<glyph glyph-name="D" unicode="D" horiz-adv-x="695" d="M216 700 C185 700 157 676 152 648 L48 62 C43 31 63 6 94 6 L222 6 C415 6 596 149 634 364 C672 576 537 700 344 700 L216 700 Z M167 104 L255 602 L337 602 C469 604 548 505 521 354 C495 201 381 105 249 104 L167 104 Z " />
<glyph glyph-name="E" unicode="E" horiz-adv-x="571" d="M220 406 L255 599 L526 599 C555 599 584 619 590 650 C596 681 572 700 544 700 L217 700 C185 700 158 676 152 645 L48 55 C42 25 62 0 93 0 L421 0 C449 0 479 20 484 50 C490 81 467 101 438 101 L167 101 L203 305 L436 305 C466 305 495 325 500 356 C506 385 484 406 454 406 L220 406 Z " />
<glyph glyph-name="F" unicode="F" horiz-adv-x="571" d="M217 700 C185 700 157 675 152 645 L48 55 C42 25 62 0 93 0 C124 0 154 25 159 55 L203 305 L436 305 C466 305 495 325 500 356 C506 385 484 406 454 406 L220 406 L255 599 L526 599 C555 599 584 619 590 650 C596 680 572 700 544 700 L217 700 Z " />
<glyph glyph-name="G" unicode="G" horiz-adv-x="774" d="M538 290 L511 133 C466 110 417 94 367 94 C228 94 134 215 157 350 C180 483 314 608 457 608 C517 608 567 576 604 543 C625 523 664 528 687 552 C710 577 712 614 690 633 C636 682 561 711 476 711 C272 711 78 551 42 350 C7 150 145 -9 349 -9 C434 -9 517 20 589 69 C608 84 617 92 621 116 L660 337 C666 369 644 393 613 393 L434 393 C403 393 373 374 368 343 C361 311 385 290 416 290 L538 290 Z " />
<glyph glyph-name="H" unicode="H" horiz-adv-x="679" d="M194 405 L239 656 C244 687 223 711 192 711 C161 711 133 687 128 656 L21 46 C15 15 34 -9 65 -9 C97 -9 125 15 131 46 L177 305 L466 305 L420 46 C415 15 435 -9 466 -9 C496 -9 526 15 531 46 L638 656 C644 687 624 711 593 711 C561 711 534 687 528 656 L484 405 L194 405 Z " />
<glyph glyph-name="I" unicode="I" horiz-adv-x="284" d="M46 46 C40 15 61 -9 91 -9 C121 -9 152 15 157 46 L265 656 C271 687 248 711 219 711 C188 711 159 687 154 656 L46 46 Z " />
<glyph glyph-name="J" unicode="J" horiz-adv-x="580" d="M5 163 C20 63 91 -9 210 -9 C358 -9 479 102 507 259 L577 656 C582 687 561 711 532 711 C501 711 471 687 466 656 L396 259 C379 164 314 92 228 92 C157 92 124 142 114 197 C109 226 84 242 52 232 C23 224 1 193 5 163 L5 163 Z " />
<glyph glyph-name="K" unicode="K" horiz-adv-x="661" d="M629 697 C610 718 574 716 549 693 L186 362 L238 656 C243 685 223 711 192 711 C161 711 133 685 128 656 L20 46 C15 16 34 -9 65 -9 C97 -9 124 16 130 46 L158 203 L276 311 L451 13 C459 -1 473 -8 489 -9 C502 -10 515 -6 527 1 C554 20 563 49 548 73 L365 392 L619 624 C644 647 647 677 629 697 L629 697 Z " />
<glyph glyph-name="L" unicode="L" horiz-adv-x="538" d="M167 102 L264 656 C270 686 248 711 218 711 C187 711 158 686 153 656 L47 55 C42 25 62 0 93 0 L409 0 C438 0 468 20 473 50 C478 81 456 102 427 102 L167 102 Z " />
<glyph glyph-name="M" unicode="M" horiz-adv-x="838" d="M711 710 C692 710 667 702 655 687 L399 402 L242 689 C235 704 214 712 195 712 C165 712 135 689 130 659 L-4 49 C-10 19 10 -7 40 -9 C71 -10 99 14 107 44 L216 503 L333 286 C339 273 352 263 375 263 C394 263 408 267 425 286 L626 513 L565 44 C560 14 583 -10 613 -9 C644 -7 673 19 677 49 L757 657 C762 687 742 710 711 710 L711 710 Z " />
<glyph glyph-name="N" unicode="N" horiz-adv-x="737" d="M208 498 L475 11 C483 -1 496 -9 512 -9 C543 -9 571 16 577 46 L685 657 C690 686 670 711 639 711 C610 711 581 686 576 657 L496 205 L230 689 C217 714 185 718 157 701 C140 690 128 672 126 654 L19 46 C14 16 34 -9 65 -9 C93 -9 123 16 128 46 L208 498 Z " />
<glyph glyph-name="O" unicode="O" horiz-adv-x="789" d="M456 711 C256 711 76 541 43 351 C6 140 125 -9 329 -9 C520 -9 703 159 737 351 C775 563 652 711 456 711 L456 711 Z M437 608 C579 608 647 483 623 351 C601 224 489 94 347 94 C202 94 133 219 157 351 C180 481 292 608 437 608 L437 608 Z " />
<glyph glyph-name="P" unicode="P" horiz-adv-x="549" d="M47 46 C42 16 63 -9 93 -9 C123 -9 153 16 158 46 L200 282 L313 282 C452 282 554 373 575 490 C595 609 525 700 386 700 L218 700 C188 700 158 676 153 645 L47 46 Z M218 383 L256 599 L368 599 C447 599 473 548 464 490 C453 434 408 383 331 383 L218 383 Z " />
<glyph glyph-name="Q" unicode="Q" horiz-adv-x="844" d="M456 711 C256 711 76 541 43 351 C6 140 125 -9 329 -9 C409 -9 488 21 556 70 L598 19 C616 -2 647 -5 672 17 C696 37 701 71 683 92 L638 146 C688 205 724 276 737 351 C775 563 652 711 456 711 L456 711 Z M528 277 C510 299 478 300 454 279 C427 257 425 226 443 204 L494 144 C451 113 401 94 347 94 C202 94 133 219 157 351 C180 481 292 608 437 608 C579 608 647 483 623 351 C615 308 597 264 571 225 L528 277 Z " />
<glyph glyph-name="R" unicode="R" horiz-adv-x="579" d="M218 700 C188 700 158 676 153 645 L47 46 C42 16 63 -9 93 -9 C123 -9 153 16 158 46 L200 282 L273 282 L395 16 C407 -10 439 -18 468 0 C495 15 511 49 499 76 L399 295 C493 323 559 399 575 490 C596 609 526 700 386 700 L218 700 Z M464 490 C453 434 408 383 331 383 L218 383 L256 599 L369 599 C447 599 473 548 464 490 L464 490 Z " />
<glyph glyph-name="S" unicode="S" horiz-adv-x="587" d="M244 -8 C135 -8 65 27 17 109 C4 134 -4 167 31 193 C69 222 98 209 114 185 C153 127 194 96 262 96 C342 96 419 136 433 212 C441 265 414 292 300 316 C214 335 83 372 108 515 C127 623 244 709 387 709 C464 709 522 684 564 645 C583 626 586 596 558 568 C528 537 503 540 482 559 C455 582 417 609 357 609 C275 609 224 564 217 519 C207 466 232 437 341 413 C458 387 567 346 543 217 C519 80 370 -8 244 -8 L244 -8 Z " />
<glyph glyph-name="T" unicode="T" horiz-adv-x="587" d="M611 650 C617 681 594 700 565 700 L137 700 C107 700 79 681 74 650 C68 620 89 599 119 599 L277 599 L180 46 C174 15 196 -9 225 -9 C256 -9 285 15 290 46 L388 599 L547 599 C576 599 606 620 611 650 L611 650 Z " />
<glyph glyph-name="U" unicode="U" horiz-adv-x="753" d="M705 656 C712 687 692 711 661 711 C629 711 600 687 595 656 L526 270 C508 162 416 92 317 92 C209 92 152 162 171 270 L239 656 C244 687 222 711 192 711 C162 711 133 687 128 656 L62 280 C31 111 129 -9 299 -9 C459 -9 610 111 640 280 L705 656 Z " />
<glyph glyph-name="V" unicode="V" horiz-adv-x="702" d="M232 24 C238 6 249 -8 277 -8 C306 -8 326 13 334 24 L693 636 C709 663 701 697 676 707 C651 719 616 706 599 679 L387 314 L310 178 L281 313 L194 677 C186 705 157 718 127 706 C96 695 78 662 85 635 L232 24 Z " />
<glyph glyph-name="W" unicode="W" horiz-adv-x="791" d="M382 291 L493 19 C500 -2 519 -12 542 -8 C566 -5 590 14 599 38 L803 648 C814 679 796 706 769 711 C738 716 708 695 697 665 L542 202 L453 418 C448 437 428 445 408 445 C389 445 369 436 356 418 L192 202 L200 665 C200 695 177 716 145 711 C116 706 89 679 88 648 L76 38 C76 14 94 -5 118 -8 C138 -12 161 -2 176 19 L382 291 Z " />
<glyph glyph-name="X" unicode="X" horiz-adv-x="681" d="M403 348 L653 624 C675 648 676 683 653 700 C632 718 600 716 575 688 L351 441 L216 688 C201 716 169 718 141 700 C114 683 102 648 115 624 L260 362 L3 78 C-19 53 -21 19 2 2 C23 -17 57 -12 81 14 L311 269 L452 14 C467 -12 499 -17 527 2 C556 19 565 53 553 78 L403 348 Z " />
<glyph glyph-name="Y" unicode="Y" horiz-adv-x="570" d="M354 348 L609 629 C631 653 631 682 609 700 C588 718 554 714 530 688 L360 502 L317 449 L292 502 L189 688 C176 714 143 718 114 700 C87 682 76 653 91 629 L245 348 L191 46 C185 15 208 -9 236 -9 C267 -9 296 15 301 46 L354 348 Z " />
<glyph glyph-name="Z" unicode="Z" horiz-adv-x="606" d="M471 599 L6 87 C0 81 -10 71 -13 52 C-19 24 1 0 29 0 L466 0 C496 0 525 19 530 50 C536 81 514 101 483 101 L153 101 L620 613 C629 622 636 634 638 648 C644 676 625 700 596 700 L157 700 C126 700 99 681 94 650 C88 620 108 599 140 599 L471 599 Z " />
<glyph glyph-name="bracketleft" unicode="&#x5b;" horiz-adv-x="391" d="M6 -70 C-1 -103 20 -131 54 -131 L260 -131 C285 -131 312 -108 316 -82 C320 -56 302 -35 277 -35 L127 -35 L241 605 L389 605 C416 605 441 626 445 652 C451 678 432 701 406 701 L201 701 C167 701 136 673 131 640 L6 -70 Z " />
<glyph glyph-name="backslash" unicode="&#x5c;" horiz-adv-x="396" d="M299 -4 C331 8 349 40 342 68 L193 679 C185 706 156 719 125 707 C95 697 77 663 84 636 L233 24 C238 4 258 -8 279 -8 C285 -8 293 -7 299 -4 L299 -4 Z " />
<glyph glyph-name="bracketright" unicode="&#x5d;" horiz-adv-x="391" d="M385 640 C392 673 370 701 337 701 L130 701 C105 701 79 678 75 652 C71 626 88 605 113 605 L264 605 L150 -35 L1 -35 C-26 -35 -50 -56 -54 -82 C-60 -108 -42 -131 -16 -131 L189 -131 C223 -131 255 -103 260 -70 L385 640 Z " />
<glyph glyph-name="asciicircum" unicode="&#x5e;" horiz-adv-x="500" d="M257 625 L312 532 C333 497 348 488 378 488 C410 488 415 512 403 538 L331 668 C319 691 304 704 276 704 C237 704 221 694 200 668 L82 538 C59 513 57 488 89 488 C118 488 135 497 169 532 L257 625 Z " />
<glyph glyph-name="underscore" unicode="&#x5f;" horiz-adv-x="718" d="M653 -160 C679 -160 703 -139 708 -113 C713 -87 695 -66 670 -66 L65 -66 C39 -66 15 -87 10 -113 C5 -139 23 -160 48 -160 L653 -160 Z " />
<glyph glyph-name="grave" unicode="&#x60;" horiz-adv-x="500" d="M394 591 C412 591 426 598 429 611 C430 618 426 627 423 633 L382 721 C374 739 360 749 339 749 C307 749 264 730 260 711 C258 700 264 690 272 681 L329 617 C348 595 366 591 394 591 L394 591 Z " />
<glyph glyph-name="a" unicode="a" horiz-adv-x="577" d="M495 500 C465 500 438 473 431 442 C401 484 359 500 310 500 C174 500 52 386 28 249 C4 113 86 0 222 0 C272 0 319 15 364 58 C358 28 375 0 407 0 C436 0 464 24 470 53 L539 446 C544 476 524 500 495 500 L495 500 Z M403 249 C388 163 328 99 243 99 C168 99 120 163 135 249 C151 338 218 401 296 401 C383 401 418 332 403 249 L403 249 Z " />
<glyph glyph-name="b" unicode="b" horiz-adv-x="620" d="M362 501 C312 501 259 477 214 435 L224 474 L254 646 C260 675 239 700 209 700 C179 700 150 675 145 646 L41 57 C36 25 53 0 84 0 C116 0 140 25 145 57 L147 67 C178 25 223 0 274 0 C409 0 535 104 562 249 C585 386 508 501 362 501 L362 501 Z M452 249 C437 163 367 99 291 99 C207 99 169 163 184 249 C199 332 258 401 345 401 C422 401 468 338 452 249 L452 249 Z " />
<glyph glyph-name="c" unicode="c" horiz-adv-x="511" d="M134 249 C148 326 227 401 309 401 C346 401 382 381 404 362 C424 344 450 352 474 376 C494 398 495 427 475 445 C438 478 386 500 326 500 C188 499 52 388 28 249 C4 112 100 0 238 0 C298 0 358 22 406 53 C433 73 440 102 430 124 C416 149 391 155 365 138 C335 119 291 99 255 99 C174 99 120 172 134 249 L134 249 Z " />
<glyph glyph-name="d" unicode="d" horiz-adv-x="600" d="M533 700 C503 700 474 675 470 646 L439 474 L435 434 C405 477 359 501 310 501 C164 501 47 386 22 249 C-3 104 86 0 222 0 C272 0 327 25 372 67 L370 57 C365 25 380 0 412 0 C442 0 469 25 474 57 L578 646 C583 675 564 700 533 700 L533 700 Z M399 249 C384 163 323 99 239 99 C163 99 116 163 132 249 C146 338 215 401 292 401 C379 401 414 332 399 249 L399 249 Z " />
<glyph glyph-name="e" unicode="e" horiz-adv-x="529" d="M316 500 C179 500 53 386 28 250 C5 114 91 1 228 0 C299 0 362 21 419 66 C445 87 441 118 430 131 C420 147 397 150 368 132 C330 107 290 99 256 99 C180 99 133 156 136 224 L436 224 C476 224 494 255 497 273 C514 372 488 500 316 500 L316 500 Z M299 405 C383 405 406 360 401 309 L150 309 C170 355 217 405 299 405 L299 405 Z " />
<glyph glyph-name="f" unicode="f" horiz-adv-x="323" d="M375 646 C380 676 360 701 329 701 C278 701 220 685 185 631 C165 602 156 570 149 533 L146 518 L121 518 C90 518 60 495 55 464 C50 434 70 409 102 409 L127 409 L64 56 C59 26 79 1 110 1 C141 1 169 26 175 56 L237 409 L267 409 C298 409 326 434 332 464 C337 495 317 518 287 518 L256 518 L260 533 C266 570 271 576 278 584 C284 589 293 589 310 589 C340 589 370 615 375 646 L375 646 Z " />
<glyph glyph-name="g" unicode="g" horiz-adv-x="598" d="M515 500 C486 500 457 477 453 448 L451 441 C422 483 381 500 329 500 C193 500 68 385 44 248 C20 116 105 -4 240 -4 C290 -4 339 16 384 59 C371 -48 311 -85 221 -85 C179 -85 158 -72 142 -62 C120 -48 93 -46 69 -75 C46 -103 52 -132 76 -150 C99 -166 142 -184 198 -184 C352 -184 462 -103 489 50 L559 447 C564 476 545 500 515 500 L515 500 Z M417 248 C403 166 336 104 259 104 C182 104 138 166 152 248 C165 323 237 393 310 393 C387 393 430 327 417 248 L417 248 Z " />
<glyph glyph-name="h" unicode="h" horiz-adv-x="532" d="M310 501 C261 501 217 481 185 444 L221 648 C224 678 204 700 175 700 C146 700 120 676 115 647 L11 53 C6 24 27 0 56 0 C84 0 112 24 117 53 L157 282 C170 358 209 404 277 404 C343 404 375 358 361 282 L321 53 C315 24 336 0 364 0 C394 0 420 24 425 53 L466 282 C491 426 421 501 310 501 L310 501 Z " />
<glyph glyph-name="i" unicode="i" horiz-adv-x="237" d="M240 646 C245 676 226 700 195 700 C166 700 137 676 132 646 L129 625 C123 595 142 570 173 570 C204 570 232 595 237 625 L240 646 Z M160 499 C130 499 102 476 97 444 L28 54 C23 24 42 0 73 0 C103 0 131 24 136 54 L205 444 C210 476 191 499 160 499 L160 499 Z " />
<glyph glyph-name="j" unicode="j" horiz-adv-x="223" d="M175 568 C204 568 233 594 238 623 L241 643 C247 676 228 698 197 698 C167 698 139 676 132 643 L129 623 C124 594 144 568 175 568 L175 568 Z M160 498 C131 498 102 475 96 444 L6 -70 C-27 -70 -53 -94 -58 -123 C-64 -156 -45 -178 -13 -178 C46 -178 104 -129 114 -70 L204 444 C210 475 192 498 160 498 L160 498 Z " />
<glyph glyph-name="k" unicode="k" horiz-adv-x="520" d="M157 143 L222 198 L338 20 C345 7 360 0 376 0 C389 0 402 4 414 13 C441 32 450 67 435 91 L314 276 L490 426 C516 448 522 482 504 504 C487 525 451 525 426 504 L185 299 L247 645 C251 675 231 700 200 700 C169 700 141 675 135 645 L31 55 C26 25 45 0 76 0 C108 0 136 25 142 55 L157 143 Z " />
<glyph glyph-name="l" unicode="l" horiz-adv-x="250" d="M206 700 C177 700 147 675 142 645 L38 55 C33 25 54 0 83 0 C114 0 144 25 149 55 L253 645 C258 675 237 700 206 700 L206 700 Z " />
<glyph glyph-name="m" unicode="m" horiz-adv-x="881" d="M657 500 C597 500 529 478 489 426 C463 475 412 500 347 500 C298 500 255 480 222 444 L223 448 C226 478 206 500 179 500 C148 500 122 476 118 447 L48 53 C43 24 65 0 93 0 C122 0 149 24 154 53 L194 282 C208 358 247 404 315 404 C380 404 412 358 399 282 L359 53 C353 24 374 0 402 0 C423 0 457 13 465 53 L505 282 C518 358 557 404 625 404 C691 404 722 358 709 282 L668 53 C663 24 684 0 712 0 C740 0 768 24 773 53 L814 282 C839 426 769 500 657 500 L657 500 Z " />
<glyph glyph-name="n" unicode="n" horiz-adv-x="571" d="M347 500 C298 500 255 481 223 444 L223 448 C226 478 206 500 178 500 C148 500 123 476 118 447 L48 53 C43 24 65 0 92 0 C122 0 149 24 154 53 L194 282 C208 358 247 404 315 404 C380 404 412 358 399 282 L359 53 C353 24 373 0 402 0 C431 0 458 24 463 53 L504 282 C529 426 459 500 347 500 L347 500 Z " />
<glyph glyph-name="o" unicode="o" horiz-adv-x="553" d="M311 500 C180 500 53 390 28 250 C3 111 92 0 222 0 C355 0 482 110 507 250 C532 390 443 500 311 500 L311 500 Z M293 402 C376 402 414 336 398 249 C384 162 320 96 239 96 C160 96 120 162 134 249 C150 336 212 402 293 402 L293 402 Z " />
<glyph glyph-name="p" unicode="p" horiz-adv-x="615" d="M386 500 C336 500 282 476 236 435 L238 443 C243 475 228 500 195 500 C166 500 139 475 134 443 L32 -134 C27 -163 46 -188 77 -188 C108 -188 136 -163 140 -134 L169 26 L173 66 C203 24 249 0 298 0 C434 0 560 104 586 251 C610 386 532 500 386 500 L386 500 Z M476 251 C462 162 393 99 316 99 C227 99 194 168 209 251 C224 337 282 401 369 401 C445 401 492 337 476 251 L476 251 Z " />
<glyph glyph-name="q" unicode="q" horiz-adv-x="588" d="M512 500 C480 500 454 475 449 443 L448 436 C417 476 372 500 322 500 C176 500 59 386 34 251 C9 104 99 0 234 0 C284 0 338 24 382 66 L373 26 L344 -134 C339 -163 359 -188 389 -188 C419 -188 448 -163 453 -134 L555 443 C560 475 543 500 512 500 L512 500 Z M412 248 C396 162 335 98 251 98 C175 98 128 162 144 248 C159 337 227 400 304 400 C391 400 426 331 412 248 L412 248 Z " />
<glyph glyph-name="r" unicode="r" horiz-adv-x="399" d="M382 500 C355 501 328 496 305 488 C275 478 244 456 223 432 L227 455 C232 484 209 500 184 500 C150 500 124 478 118 449 L48 53 C43 24 62 1 91 1 C121 1 151 24 156 53 L191 254 C197 284 218 335 262 369 C289 389 323 404 365 405 C395 406 421 426 427 453 C432 483 412 500 382 500 L382 500 Z " />
<glyph glyph-name="s" unicode="s" horiz-adv-x="422" d="M236 401 C266 401 304 384 325 366 C348 350 380 360 398 385 C416 411 417 442 396 458 C367 480 331 500 262 500 C171 500 74 444 57 350 C43 270 99 232 203 211 C245 202 288 186 282 152 C276 120 244 97 190 97 C141 97 114 127 90 148 C68 163 34 158 14 132 C-4 108 -6 78 11 58 C45 19 88 1 166 0 C258 0 374 73 392 171 C408 266 340 286 238 307 C198 315 159 332 165 359 C168 382 186 401 236 401 L236 401 Z " />
<glyph glyph-name="t" unicode="t" horiz-adv-x="340" d="M253 501 L279 645 C285 676 265 700 234 700 C202 700 174 676 168 645 L143 501 L124 501 C92 501 66 481 59 450 C54 420 75 400 106 400 L125 400 L74 112 C63 50 105 0 165 0 C196 0 225 24 230 55 C235 86 216 112 185 112 L236 400 L271 400 C301 400 331 420 336 450 C341 481 319 501 288 501 L253 501 Z " />
<glyph glyph-name="u" unicode="u" horiz-adv-x="583" d="M266 96 C206 96 168 131 183 218 L223 447 C229 475 210 500 180 500 C151 500 123 475 117 447 L77 218 C52 74 123 0 249 0 C372 0 471 74 497 218 L537 447 C541 475 520 500 492 500 C462 500 435 475 431 447 L391 218 C375 131 322 96 266 96 L266 96 Z " />
<glyph glyph-name="v" unicode="v" horiz-adv-x="521" d="M234 187 L168 459 C160 486 132 500 106 488 C75 476 57 447 65 420 L159 30 C164 12 180 0 202 0 C224 0 240 14 252 31 L488 420 C505 447 496 476 471 488 C446 500 415 486 399 459 L234 187 Z " />
<glyph glyph-name="w" unicode="w" horiz-adv-x="799" d="M719 489 C695 500 661 488 647 459 L481 190 L440 357 C435 377 418 389 396 389 C375 389 354 377 341 357 L242 190 L172 459 C165 488 137 500 110 489 C81 477 63 447 70 420 L165 32 C170 12 185 0 208 0 C229 0 250 12 262 32 L364 205 L406 32 C410 12 426 0 448 0 C470 0 491 12 502 32 L736 420 C753 447 744 477 719 489 L719 489 Z " />
<glyph glyph-name="x" unicode="x" horiz-adv-x="508" d="M220 159 L296 22 C316 -2 343 -6 371 11 C394 25 407 60 393 83 L304 248 L451 412 C472 433 472 468 453 483 C432 500 399 495 376 472 L252 338 L176 472 C162 495 132 500 104 483 C79 468 67 433 81 412 L172 248 L23 83 C3 60 1 25 22 11 C42 -7 71 -3 96 22 L220 159 Z " />
<glyph glyph-name="y" unicode="y" horiz-adv-x="602" d="M492 500 C462 500 436 475 431 447 L391 224 C373 119 323 101 267 101 C208 101 167 126 184 223 L224 447 C229 475 210 500 180 500 C152 500 123 475 118 447 L77 218 C52 73 123 0 249 0 C288 0 323 10 355 27 C338 -55 281 -85 218 -85 C188 -85 166 -72 151 -62 C127 -48 101 -46 77 -75 C54 -103 59 -132 85 -150 C107 -166 149 -184 197 -184 C330 -184 440 -103 467 50 L537 447 C542 475 520 500 492 500 L492 500 Z " />
<glyph glyph-name="z" unicode="z" horiz-adv-x="494" d="M154 96 L444 416 C452 425 458 435 460 447 C465 477 444 500 416 500 L128 500 C100 500 72 481 67 452 C62 422 83 404 111 404 L301 404 L17 88 C7 79 0 66 -2 53 C-6 24 14 0 42 0 L329 0 C357 0 385 19 390 48 C394 73 374 96 346 96 L154 96 Z " />
<glyph glyph-name="braceleft" unicode="&#x7b;" horiz-adv-x="429" d="M290 -135 C320 -142 347 -123 351 -94 C356 -70 342 -57 331 -53 C239 -23 231 8 243 76 L258 150 C272 228 241 265 178 287 C248 308 292 346 306 424 L318 498 C329 566 348 597 451 627 C464 631 482 644 486 668 C491 697 470 716 438 709 C277 675 225 613 208 516 L198 444 C185 370 153 338 84 335 C53 333 30 313 25 287 C21 261 36 241 67 239 C135 237 155 204 143 131 L128 59 C111 -39 140 -101 290 -135 L290 -135 Z " />
<glyph glyph-name="bar" unicode="&#x7c;" horiz-adv-x="231" d="M7 -85 C2 -112 21 -134 46 -134 C74 -134 99 -112 104 -85 L252 755 C257 782 238 804 212 804 C185 804 160 782 155 755 L7 -85 Z " />
<glyph glyph-name="braceright" unicode="&#x7d;" horiz-adv-x="429" d="M6 -135 C167 -101 219 -39 236 59 L246 131 C259 204 291 237 360 239 C391 241 414 261 419 287 C423 313 408 333 377 335 C309 338 289 370 301 444 L316 516 C333 613 304 675 154 709 C124 716 97 697 93 668 C88 644 102 631 113 627 C205 597 213 566 201 498 L186 424 C172 346 204 308 266 287 C195 265 152 228 138 150 L126 76 C115 8 96 -23 -7 -53 C-20 -57 -38 -70 -42 -94 C-47 -123 -26 -142 6 -135 L6 -135 Z " />
<glyph glyph-name="asciitilde" unicode="&#x7e;" horiz-adv-x="430" d="M113 247 C129 269 142 279 166 279 C201 279 247 239 302 239 C356 239 389 272 420 330 C425 337 427 347 428 353 C431 370 417 386 397 386 C382 386 369 377 361 366 C345 344 333 335 309 335 C274 335 227 374 172 374 C119 374 86 341 55 283 C50 277 48 266 47 261 C44 243 58 228 78 228 C93 228 106 236 113 247 L113 247 Z " />
<glyph glyph-name="exclamdown" unicode="&#xa1;" horiz-adv-x="237" d="M180 711 C141 711 104 679 97 640 C90 601 115 568 156 568 C194 568 233 601 239 640 C247 679 219 711 180 711 L180 711 Z M9 46 C4 16 24 -9 54 -9 C85 -9 113 16 119 46 L192 461 C197 492 177 516 147 516 C118 516 88 492 83 461 L9 46 Z " />
<glyph glyph-name="sterling" unicode="&#xa3;" horiz-adv-x="594" d="M589 593 C555 648 496 681 429 685 C297 691 168 589 138 458 C133 433 132 407 134 384 C110 378 89 361 85 335 C80 305 101 286 131 286 L167 286 C170 267 171 242 167 221 C155 171 120 128 72 105 C51 97 34 77 30 55 C25 24 45 0 76 0 L455 0 C485 0 512 24 519 55 C524 85 504 109 474 109 L225 109 L231 116 C252 146 266 181 275 216 C280 239 283 263 281 286 L404 286 C434 286 463 305 468 335 C473 365 452 385 421 385 L251 385 C243 406 242 429 246 453 C263 524 333 578 403 575 C441 574 472 555 490 526 C504 502 539 498 565 516 C592 535 602 569 589 593 L589 593 Z " />
<glyph glyph-name="yen" unicode="&#xa5;" horiz-adv-x="618" d="M355 191 L369 274 L524 274 C548 276 570 288 575 313 C579 338 562 353 538 353 L417 353 L647 605 C674 634 681 669 657 692 C630 718 588 707 559 670 L335 410 L207 671 C188 710 151 716 114 692 C81 668 74 635 91 605 L230 353 L111 353 C87 353 65 338 61 313 C56 288 73 274 98 274 L251 274 L236 191 L83 191 C58 191 36 176 32 151 C28 127 45 113 69 113 L223 113 L213 54 C207 21 228 -5 261 -5 C295 -5 324 21 331 54 L341 113 L495 113 C518 113 542 127 546 151 C550 176 533 191 509 191 L355 191 Z " />
<glyph glyph-name="section" unicode="&#xa7;" horiz-adv-x="632" d="" />
<glyph glyph-name="dieresis" unicode="&#xa8;" horiz-adv-x="500" d="M223 636 C217 600 240 572 276 572 C312 572 346 600 352 636 C358 672 334 701 298 701 C262 701 229 672 223 636 L223 636 Z M423 636 C417 600 440 572 476 572 C512 572 546 600 552 636 C558 672 534 701 498 701 C462 701 429 672 423 636 L423 636 Z " />
<glyph glyph-name="copyright" unicode="&#xa9;" horiz-adv-x="830" d="M340 -13 C543 -13 733 153 768 350 L768 352 C802 549 673 713 470 713 C267 713 77 547 42 350 L42 348 C8 151 137 -13 340 -13 L340 -13 Z M347 24 C162 24 49 169 81 348 L81 350 C112 529 279 676 463 676 C648 676 761 531 729 352 L729 350 C698 171 531 24 347 24 L347 24 Z M375 159 C439 159 482 180 525 212 C531 218 539 226 540 237 C544 256 530 272 511 272 C501 272 493 267 488 263 C457 240 427 227 389 227 C321 227 282 285 294 354 L294 356 C306 426 367 482 435 482 C469 482 495 469 515 451 C522 445 529 441 537 441 C557 441 576 457 580 478 C582 491 577 502 569 508 C542 534 508 551 446 551 C333 551 236 462 217 355 L217 353 C198 245 265 159 375 159 L375 159 Z " />
<glyph glyph-name="guillemotleft" unicode="&#xab;" horiz-adv-x="529" d="M141 262 L272 402 C283 413 289 423 292 436 C295 464 278 486 250 486 C231 486 215 476 205 464 L47 299 C35 287 28 277 24 263 C22 250 27 240 34 228 L132 66 C139 52 154 42 172 42 C199 42 225 65 230 92 C232 104 228 117 222 126 L141 262 Z M389 262 L520 402 C531 413 537 423 540 436 C543 464 526 486 498 486 C479 486 463 476 453 464 L295 299 C283 287 276 277 272 263 C270 250 275 240 282 228 L380 66 C387 52 402 42 420 42 C447 42 473 65 478 92 C480 104 476 117 470 126 L389 262 Z " />
<glyph glyph-name="registered" unicode="&#xae;" horiz-adv-x="412" d="M249 710 C152 710 61 630 44 535 C27 439 89 360 187 360 C284 360 375 440 392 536 C409 631 347 710 249 710 L249 710 Z M246 691 C334 691 388 621 372 536 C357 450 277 379 190 379 C102 379 48 449 64 535 C79 620 159 691 246 691 L246 691 Z M189 634 C181 634 172 627 170 618 L140 443 C139 434 144 427 153 427 C162 427 171 434 172 443 L184 509 L216 509 L246 435 C249 427 257 425 267 429 C275 434 279 444 277 452 L252 517 C274 528 290 549 294 571 C301 607 274 634 243 634 L189 634 Z M190 541 L201 601 L237 601 C253 601 265 588 261 571 C258 555 242 541 226 541 L190 541 Z " />
<glyph glyph-name="degree" unicode="&#xb0;" horiz-adv-x="397" d="M182 381 C269 381 362 456 376 543 L377 545 C392 632 327 706 240 706 C152 706 59 632 45 545 L44 543 C29 456 94 381 182 381 L182 381 Z M194 447 C139 447 107 492 116 543 L117 545 C125 596 173 640 228 640 C282 640 314 596 305 545 L305 543 C296 492 248 447 194 447 L194 447 Z " />
<glyph glyph-name="acute" unicode="&#xb4;" horiz-adv-x="500" d="M307 591 C335 591 356 595 383 617 L462 681 C473 690 481 700 483 711 C487 730 450 749 418 749 C397 749 379 739 365 721 L292 633 C287 627 282 618 281 611 C278 598 290 591 307 591 L307 591 Z " />
<glyph glyph-name="cedilla" unicode="&#xb8;" horiz-adv-x="500" d="M355 10 L264 10 L175 -93 C169 -100 165 -108 163 -116 C159 -136 201 -160 225 -160 C246 -160 258 -150 270 -131 L355 10 Z " />
<glyph glyph-name="guillemotright" unicode="&#xbb;" horiz-adv-x="525" d="M145 266 L14 126 C3 115 -3 105 -6 92 C-9 64 8 42 36 42 C55 42 71 52 81 64 L239 229 C251 241 258 251 262 265 C264 278 259 288 252 300 L154 462 C147 476 132 486 114 486 C87 486 61 463 56 436 C54 424 58 411 64 402 L145 266 Z M394 266 L263 126 C252 115 246 105 243 92 C240 64 257 42 285 42 C304 42 320 52 330 64 L488 229 C500 241 507 251 511 265 C513 278 508 288 501 300 L403 462 C396 476 381 486 363 486 C336 486 310 463 305 436 C303 424 307 411 313 402 L394 266 Z " />
<glyph glyph-name="questiondown" unicode="&#xbf;" horiz-adv-x="473" d="M335 710 C296 710 258 678 251 639 C244 600 271 567 310 567 C350 567 387 600 394 639 C401 678 376 710 335 710 L335 710 Z M228 394 C134 383 45 301 28 202 C7 86 91 -9 206 -9 C284 -9 359 33 405 95 C424 119 421 148 401 162 C379 176 348 168 329 144 C305 111 264 89 224 89 C161 89 122 138 134 201 C145 263 201 313 263 313 C290 313 316 336 321 362 L342 479 C347 507 327 528 302 528 C273 528 249 507 243 479 L228 394 Z " />
<glyph glyph-name="Agrave" unicode="&#xc0;" horiz-adv-x="613" d="M427 794 C444 794 457 801 460 813 C460 820 457 828 454 834 L415 917 C408 934 394 943 375 943 C345 943 304 925 300 907 C298 897 304 888 311 879 L365 819 C383 798 400 794 427 794 L427 794 Z M170 170 L409 170 L439 26 C443 4 462 -9 483 -9 C491 -9 498 -8 503 -6 C534 5 554 37 549 66 L430 675 C426 697 408 711 385 710 C362 711 338 697 326 675 L-7 66 C-22 37 -13 5 15 -6 C20 -8 25 -9 33 -9 C55 -9 78 4 91 26 L170 170 Z M389 270 L222 270 L344 490 L389 270 Z " />
<glyph glyph-name="Aacute" unicode="&#xc1;" horiz-adv-x="613" d="M377 791 C405 791 426 795 453 817 L532 881 C543 890 551 900 553 911 C557 930 520 949 488 949 C467 949 449 939 435 921 L362 833 C357 827 352 818 351 811 C348 798 360 791 377 791 L377 791 Z M170 170 L409 170 L439 26 C443 4 462 -9 483 -9 C491 -9 498 -8 503 -6 C534 5 554 37 549 66 L430 675 C426 697 408 711 385 710 C362 711 338 697 326 675 L-7 66 C-22 37 -13 5 15 -6 C20 -8 25 -9 33 -9 C55 -9 78 4 91 26 L170 170 Z M389 270 L222 270 L344 490 L389 270 Z " />
<glyph glyph-name="Acircumflex" unicode="&#xc2;" horiz-adv-x="613" d="M404 860 L448 815 C471 793 489 788 517 788 C533 788 547 795 550 808 C551 815 547 824 542 832 L491 915 C480 933 466 944 438 944 L402 944 C374 944 357 933 339 915 L258 832 C251 824 243 815 242 808 C239 795 250 788 265 788 C293 788 314 793 344 815 L404 860 Z M170 170 L409 170 L439 26 C443 4 462 -9 483 -9 C491 -9 498 -8 503 -6 C534 5 554 37 549 66 L430 675 C426 697 408 711 385 710 C362 711 338 697 326 675 L-7 66 C-22 37 -13 5 15 -6 C20 -8 25 -9 33 -9 C55 -9 78 4 91 26 L170 170 Z M389 270 L222 270 L344 490 L389 270 Z " />
<glyph glyph-name="Atilde" unicode="&#xc3;" horiz-adv-x="664" d="M338 805 C353 826 367 837 390 837 C426 837 472 796 527 796 C580 796 614 829 645 888 C648 894 652 905 653 911 C656 928 642 944 622 944 C607 944 594 934 585 924 C569 901 557 892 534 892 C498 892 452 931 397 931 C344 931 310 898 279 840 C275 834 272 823 271 818 C268 801 282 785 302 785 C319 785 329 793 338 805 L338 805 Z M203 170 L442 170 L472 26 C476 4 495 -9 516 -9 C524 -9 531 -8 536 -6 C567 5 587 37 582 66 L463 675 C459 697 441 711 418 710 C395 711 371 697 359 675 L26 66 C11 37 20 5 48 -6 C53 -8 58 -9 66 -9 C88 -9 111 4 124 26 L203 170 Z M422 270 L255 270 L377 490 L422 270 Z " />
<glyph glyph-name="Adieresis" unicode="&#xc4;" horiz-adv-x="593" d="M247 855 C242 821 263 794 297 794 C331 794 363 821 369 855 C375 889 352 916 318 916 C284 916 253 889 247 855 L247 855 Z M436 855 C430 821 452 794 486 794 C520 794 552 821 558 855 C563 889 541 916 507 916 C473 916 442 889 436 855 L436 855 Z M170 170 L409 170 L439 26 C443 4 462 -9 483 -9 C491 -9 498 -8 503 -6 C534 5 554 37 549 66 L430 675 C426 697 408 711 385 710 C362 711 338 697 326 675 L-7 66 C-22 37 -13 5 15 -6 C20 -8 25 -9 33 -9 C55 -9 78 4 91 26 L170 170 Z M389 270 L222 270 L344 490 L389 270 Z " />
<glyph glyph-name="Aring" unicode="&#xc5;" horiz-adv-x="585" d="M414 632 C452 654 480 691 488 732 L489 734 C501 801 450 856 383 856 C315 856 244 801 232 734 L232 732 C225 689 244 650 276 628 L277 628 L-31 66 C-46 37 -37 5 -9 -6 C-4 -8 1 -8 9 -8 C31 -8 54 4 67 27 L143 165 L386 165 L415 27 C419 4 438 -8 459 -8 C467 -8 474 -8 479 -6 C510 5 531 37 525 66 L414 632 Z M313 734 C317 760 342 781 369 781 C396 781 414 760 408 734 L408 732 C404 706 379 685 352 685 C325 685 308 706 312 732 L313 734 Z M364 275 L202 275 L320 490 L364 275 Z " />
<glyph glyph-name="AE" unicode="&#xc6;" horiz-adv-x="959" d="M610 406 L643 599 L915 599 C943 599 973 620 978 650 C984 681 961 700 933 700 L512 700 C477 700 454 683 432 656 L-8 77 C-16 68 -22 55 -24 42 C-30 13 -10 -9 20 -9 C45 -9 64 3 81 25 L201 185 L460 185 L437 55 C431 25 452 0 482 0 L809 0 C838 0 867 20 872 50 C879 81 855 101 827 101 L555 101 L591 305 L825 305 C854 305 883 325 889 356 C894 385 872 406 843 406 L610 406 Z M533 599 L477 283 L277 283 L513 599 L533 599 Z " />
<glyph glyph-name="Ccedilla" unicode="&#xc7;" horiz-adv-x="710" d="M690 633 C635 682 561 711 473 711 C262 710 77 549 42 351 C7 152 136 -9 346 -9 L369 -8 L295 -94 C289 -101 285 -109 283 -117 C279 -137 321 -161 345 -161 C366 -161 378 -151 390 -132 L475 9 L466 9 C510 22 552 43 590 69 C618 88 629 122 615 147 C599 171 570 177 544 160 C493 124 426 94 364 94 C209 94 131 211 156 351 C180 489 295 608 454 608 C516 608 575 578 612 542 C632 524 663 530 687 555 C709 580 710 613 690 633 L690 633 Z " />
<glyph glyph-name="Egrave" unicode="&#xc8;" horiz-adv-x="571" d="M406 791 C424 791 438 798 441 811 C442 818 438 827 435 833 L394 921 C386 939 372 949 351 949 C319 949 276 930 272 911 C270 900 276 890 284 881 L341 817 C360 795 378 791 406 791 L406 791 Z M220 406 L255 599 L526 599 C555 599 584 619 590 650 C596 681 572 700 544 700 L217 700 C185 700 158 676 152 645 L48 55 C42 25 62 0 93 0 L421 0 C449 0 479 20 484 50 C490 81 467 101 438 101 L167 101 L203 305 L436 305 C466 305 495 325 500 356 C506 385 484 406 454 406 L220 406 Z " />
<glyph glyph-name="Eacute" unicode="&#xc9;" horiz-adv-x="571" d="M348 792 C376 792 397 796 424 818 L503 882 C514 891 522 901 524 912 C528 931 491 950 459 950 C438 950 420 940 406 922 L333 834 C328 828 323 819 322 812 C319 799 331 792 348 792 L348 792 Z M220 406 L255 599 L526 599 C555 599 584 619 590 650 C596 681 572 700 544 700 L217 700 C185 700 158 676 152 645 L48 55 C42 25 62 0 93 0 L421 0 C449 0 479 20 484 50 C490 81 467 101 438 101 L167 101 L203 305 L436 305 C466 305 495 325 500 356 C506 385 484 406 454 406 L220 406 Z " />
<glyph glyph-name="Ecircumflex" unicode="&#xca;" horiz-adv-x="571" d="M421 862 L465 817 C488 795 506 790 534 790 C550 790 564 797 567 810 C568 817 564 826 559 834 L508 917 C497 935 483 946 455 946 L419 946 C391 946 374 935 356 917 L275 834 C268 826 260 817 259 810 C256 797 267 790 282 790 C310 790 331 795 361 817 L421 862 Z M220 406 L255 599 L526 599 C555 599 584 619 590 650 C596 681 572 700 544 700 L217 700 C185 700 158 676 152 645 L48 55 C42 25 62 0 93 0 L421 0 C449 0 479 20 484 50 C490 81 467 101 438 101 L167 101 L203 305 L436 305 C466 305 495 325 500 356 C506 385 484 406 454 406 L220 406 Z " />
<glyph glyph-name="Edieresis" unicode="&#xcb;" horiz-adv-x="593" d="M249 854 C243 818 266 790 302 790 C338 790 372 818 378 854 C384 890 360 919 324 919 C288 919 255 890 249 854 L249 854 Z M449 854 C443 818 466 790 502 790 C538 790 572 818 578 854 C584 890 560 919 524 919 C488 919 455 890 449 854 L449 854 Z M220 406 L255 599 L526 599 C555 599 584 619 590 650 C596 681 572 700 544 700 L217 700 C185 700 158 676 152 645 L48 55 C42 25 62 0 93 0 L421 0 C449 0 479 20 484 50 C490 81 467 101 438 101 L167 101 L203 305 L436 305 C466 305 495 325 500 356 C506 385 484 406 454 406 L220 406 Z " />
<glyph glyph-name="Igrave" unicode="&#xcc;" horiz-adv-x="305" d="M244 792 C262 792 276 799 279 812 C280 819 276 828 273 834 L232 922 C224 940 210 950 189 950 C157 950 114 931 110 912 C108 901 114 891 122 882 L179 818 C198 796 216 792 244 792 L244 792 Z M46 46 C40 15 61 -9 91 -9 C121 -9 152 15 157 46 L265 656 C271 687 248 711 219 711 C188 711 159 687 154 656 L46 46 Z " />
<glyph glyph-name="Iacute" unicode="&#xcd;" horiz-adv-x="305" d="M204 792 C232 792 253 796 280 818 L359 882 C370 891 378 901 380 912 C384 931 347 950 315 950 C294 950 276 940 262 922 L189 834 C184 828 179 819 178 812 C175 799 187 792 204 792 L204 792 Z M46 46 C40 15 61 -9 91 -9 C121 -9 152 15 157 46 L265 656 C271 687 248 711 219 711 C188 711 159 687 154 656 L46 46 Z " />
<glyph glyph-name="Icircumflex" unicode="&#xce;" horiz-adv-x="284" d="M232 864 L276 819 C299 797 317 792 345 792 C361 792 375 799 378 812 C379 819 375 828 370 836 L319 919 C308 937 294 948 266 948 L230 948 C202 948 185 937 167 919 L86 836 C79 828 71 819 70 812 C67 799 78 792 93 792 C121 792 142 797 172 819 L232 864 Z M46 46 C40 15 61 -9 91 -9 C121 -9 152 15 157 46 L265 656 C271 687 248 711 219 711 C188 711 159 687 154 656 L46 46 Z " />
<glyph glyph-name="Idieresis" unicode="&#xcf;" horiz-adv-x="305" d="M64 855 C58 819 81 791 117 791 C153 791 187 819 193 855 C199 891 175 920 139 920 C103 920 70 891 64 855 L64 855 Z M264 855 C258 819 281 791 317 791 C353 791 387 819 393 855 C399 891 375 920 339 920 C303 920 270 891 264 855 L264 855 Z M48 46 C42 15 63 -9 93 -9 C123 -9 154 15 159 46 L267 656 C273 687 250 711 221 711 C190 711 161 687 156 656 L48 46 Z " />
<glyph glyph-name="Eth" unicode="&#xd0;" horiz-adv-x="706" d="M258 700 C227 700 199 676 194 648 L152 412 L94 412 C61 412 29 385 24 352 C19 320 41 293 73 293 L131 293 L90 62 C85 31 105 6 136 6 L264 6 C457 6 638 149 676 364 C714 576 579 700 386 700 L258 700 Z M563 354 C537 201 423 105 291 104 L209 104 L242 293 L260 293 C292 293 324 320 330 352 C335 385 313 412 281 412 L263 412 L297 602 L379 602 C511 604 590 505 563 354 L563 354 Z " />
<glyph glyph-name="Ntilde" unicode="&#xd1;" horiz-adv-x="790" d="M316 805 C332 826 345 837 368 837 C404 837 450 796 505 796 C558 796 592 829 623 888 C627 894 630 905 631 911 C634 928 620 944 600 944 C585 944 572 934 563 924 C547 901 534 892 512 892 C476 892 429 931 374 931 C321 931 288 898 257 840 C253 834 249 823 248 818 C246 801 260 785 280 785 C296 785 307 793 316 805 L316 805 Z M208 498 L475 11 C483 -1 496 -9 512 -9 C543 -9 571 16 577 46 L685 657 C690 686 670 711 639 711 C610 711 581 686 576 657 L496 205 L230 689 C217 714 185 718 157 701 C140 690 128 672 126 654 L19 46 C14 16 34 -9 65 -9 C93 -9 123 16 128 46 L208 498 Z " />
<glyph glyph-name="Ograve" unicode="&#xd2;" horiz-adv-x="789" d="M509 791 C527 791 541 798 544 811 C545 818 541 827 538 833 L497 921 C489 939 475 949 454 949 C422 949 379 930 375 911 C373 900 379 890 387 881 L444 817 C463 795 481 791 509 791 L509 791 Z M456 711 C256 711 76 541 43 351 C6 140 125 -9 329 -9 C520 -9 703 159 737 351 C775 563 652 711 456 711 L456 711 Z M437 608 C579 608 647 483 623 351 C601 224 489 94 347 94 C202 94 133 219 157 351 C180 481 292 608 437 608 L437 608 Z " />
<glyph glyph-name="Oacute" unicode="&#xd3;" horiz-adv-x="850" d="M467 792 C495 792 516 796 543 818 L622 882 C633 891 641 901 643 912 C647 931 610 950 578 950 C557 950 539 940 525 922 L452 834 C447 828 442 819 441 812 C438 799 450 792 467 792 L467 792 Z M456 711 C256 711 76 541 43 351 C6 140 125 -9 329 -9 C520 -9 703 159 737 351 C775 563 652 711 456 711 L456 711 Z M437 608 C579 608 647 483 623 351 C601 224 489 94 347 94 C202 94 133 219 157 351 C180 481 292 608 437 608 L437 608 Z " />
<glyph glyph-name="Ocircumflex" unicode="&#xd4;" horiz-adv-x="789" d="M518 862 L562 817 C585 795 603 790 631 790 C647 790 661 797 664 810 C665 817 661 826 656 834 L605 917 C594 935 580 946 552 946 L516 946 C488 946 471 935 453 917 L372 834 C365 826 357 817 356 810 C353 797 364 790 379 790 C407 790 428 795 458 817 L518 862 Z M456 711 C256 711 76 541 43 351 C6 140 125 -9 329 -9 C520 -9 703 159 737 351 C775 563 652 711 456 711 L456 711 Z M437 608 C579 608 647 483 623 351 C601 224 489 94 347 94 C202 94 133 219 157 351 C180 481 292 608 437 608 L437 608 Z " />
<glyph glyph-name="Otilde" unicode="&#xd5;" horiz-adv-x="850" d="M360 805 C376 826 389 837 412 837 C448 837 494 796 549 796 C602 796 636 829 667 888 C670 894 674 905 675 911 C678 928 663 944 643 944 C628 944 616 934 607 924 C591 901 579 892 555 892 C519 892 474 931 419 931 C366 931 332 898 301 840 C298 834 294 823 292 818 C289 801 304 785 324 785 C340 785 352 793 360 805 L360 805 Z M456 711 C256 711 76 541 43 351 C6 140 125 -9 329 -9 C520 -9 703 159 737 351 C775 563 652 711 456 711 L456 711 Z M437 608 C579 608 647 483 623 351 C601 224 489 94 347 94 C202 94 133 219 157 351 C180 481 292 608 437 608 L437 608 Z " />
<glyph glyph-name="Odieresis" unicode="&#xd6;" horiz-adv-x="789" d="M341 836 C335 800 358 772 394 772 C430 772 464 800 470 836 C476 872 452 901 416 901 C380 901 347 872 341 836 L341 836 Z M541 836 C535 800 558 772 594 772 C630 772 664 800 670 836 C676 872 652 901 616 901 C580 901 547 872 541 836 L541 836 Z M456 711 C256 711 76 541 43 351 C6 140 125 -9 329 -9 C520 -9 703 159 737 351 C775 563 652 711 456 711 L456 711 Z M437 608 C579 608 647 483 623 351 C601 224 489 94 347 94 C202 94 133 219 157 351 C180 481 292 608 437 608 L437 608 Z " />
<glyph glyph-name="multiply" unicode="&#xd7;" horiz-adv-x="560" d="M364 353 L517 481 C530 491 539 505 541 519 C546 550 528 572 498 572 C483 572 469 567 457 556 L305 425 L200 556 C191 566 180 572 163 572 C133 572 104 549 99 519 C96 503 101 489 109 479 L218 351 L65 223 C53 213 43 199 40 183 C36 154 54 132 83 132 C99 132 113 137 125 148 L277 279 L382 147 C391 138 402 132 419 132 C449 132 478 155 483 185 C486 201 481 215 472 225 L364 353 Z " />
<glyph glyph-name="Oslash" unicode="&#xd8;" horiz-adv-x="789" d="M761 697 C746 697 731 690 720 680 L665 632 C615 682 543 711 456 711 C256 711 76 541 43 351 C27 257 41 176 80 114 L37 76 C27 68 16 55 13 39 C10 18 24 0 49 0 C65 0 80 7 90 17 L133 54 C182 14 249 -9 329 -9 C520 -9 703 159 737 351 C752 434 742 508 713 566 L774 620 C784 629 794 641 797 657 C800 679 786 697 761 697 L761 697 Z M157 351 C180 481 292 608 437 608 C496 608 543 586 575 551 L175 198 C153 242 147 296 157 351 L157 351 Z M623 351 C601 224 489 94 347 94 C297 94 255 109 224 135 L616 480 C629 441 632 397 623 351 L623 351 Z " />
<glyph glyph-name="Ugrave" unicode="&#xd9;" horiz-adv-x="753" d="M462 791 C480 791 494 798 497 811 C498 818 494 827 491 833 L450 921 C442 939 428 949 407 949 C375 949 332 930 328 911 C326 900 332 890 340 881 L397 817 C416 795 434 791 462 791 L462 791 Z M705 656 C712 687 692 711 661 711 C629 711 600 687 595 656 L526 270 C508 162 416 92 317 92 C209 92 152 162 171 270 L239 656 C244 687 222 711 192 711 C162 711 133 687 128 656 L62 280 C31 111 129 -9 299 -9 C459 -9 610 111 640 280 L705 656 Z " />
<glyph glyph-name="Uacute" unicode="&#xda;" horiz-adv-x="814" d="M439 792 C467 792 488 796 515 818 L594 882 C605 891 613 901 615 912 C619 931 582 950 550 950 C529 950 511 940 497 922 L424 834 C419 828 414 819 413 812 C410 799 422 792 439 792 L439 792 Z M705 656 C712 687 692 711 661 711 C629 711 600 687 595 656 L526 270 C508 162 416 92 317 92 C209 92 152 162 171 270 L239 656 C244 687 222 711 192 711 C162 711 133 687 128 656 L62 280 C31 111 129 -9 299 -9 C459 -9 610 111 640 280 L705 656 Z " />
<glyph glyph-name="Ucircumflex" unicode="&#xdb;" horiz-adv-x="753" d="M482 863 L526 818 C549 796 567 791 595 791 C611 791 625 798 628 811 C629 818 625 827 620 835 L569 918 C558 936 544 947 516 947 L480 947 C452 947 435 936 417 918 L336 835 C329 827 321 818 320 811 C317 798 328 791 343 791 C371 791 392 796 422 818 L482 863 Z M705 656 C712 687 692 711 661 711 C629 711 600 687 595 656 L526 270 C508 162 416 92 317 92 C209 92 152 162 171 270 L239 656 C244 687 222 711 192 711 C162 711 133 687 128 656 L62 280 C31 111 129 -9 299 -9 C459 -9 610 111 640 280 L705 656 Z " />
<glyph glyph-name="Udieresis" unicode="&#xdc;" horiz-adv-x="753" d="M298 855 C292 819 315 791 351 791 C387 791 421 819 427 855 C433 891 409 920 373 920 C337 920 304 891 298 855 L298 855 Z M498 855 C492 819 515 791 551 791 C587 791 621 819 627 855 C633 891 609 920 573 920 C537 920 504 891 498 855 L498 855 Z M705 656 C712 687 692 711 661 711 C629 711 600 687 595 656 L526 270 C508 162 416 92 317 92 C209 92 152 162 171 270 L239 656 C244 687 222 711 192 711 C162 711 133 687 128 656 L62 280 C31 111 129 -9 299 -9 C459 -9 610 111 640 280 L705 656 Z " />
<glyph glyph-name="Yacute" unicode="&#xdd;" horiz-adv-x="570" d="M369 788 C397 788 418 792 445 814 L524 878 C535 887 543 897 545 908 C549 927 512 946 480 946 C459 946 441 936 427 918 L354 830 C349 824 344 815 343 808 C340 795 352 788 369 788 L369 788 Z M354 348 L609 629 C631 653 631 682 609 700 C588 718 554 714 530 688 L360 502 L317 449 L292 502 L189 688 C176 714 143 718 114 700 C87 682 76 653 91 629 L245 348 L191 46 C185 15 208 -9 236 -9 C267 -9 296 15 301 46 L354 348 Z " />
<glyph glyph-name="germandbls" unicode="&#xdf;" horiz-adv-x="620" d="M437 375 C501 408 563 457 579 547 C597 654 533 737 396 737 C251 737 143 647 117 502 L39 59 C33 26 55 0 87 0 C121 0 153 26 158 59 L238 506 C252 584 306 634 373 634 C433 634 467 596 456 538 C446 478 399 439 342 410 C325 400 311 384 307 360 C302 329 320 314 342 307 C405 290 448 258 438 201 C427 138 376 106 303 95 C276 89 256 71 252 47 C246 18 263 -3 297 -3 C411 -1 535 66 558 198 C576 297 511 350 437 375 L437 375 Z " />
<glyph glyph-name="agrave" unicode="&#xe0;" horiz-adv-x="619" d="M288 597 C307 576 325 570 353 570 C372 570 385 578 388 591 C388 598 386 607 383 613 L341 701 C333 719 319 730 298 730 C266 730 223 710 219 691 C217 680 223 670 231 661 L288 597 Z M495 500 C465 500 438 473 431 442 C401 484 359 500 310 500 C174 500 52 386 28 249 C4 113 86 0 222 0 C272 0 319 15 364 58 C358 28 375 0 407 0 C436 0 464 24 470 53 L539 446 C544 476 524 500 495 500 L495 500 Z M403 249 C388 163 328 99 243 99 C168 99 120 163 135 249 C151 338 218 401 296 401 C383 401 418 332 403 249 L403 249 Z " />
<glyph glyph-name="aacute" unicode="&#xe1;" horiz-adv-x="619" d="M352 568 C380 568 401 572 428 594 L507 658 C518 667 526 677 528 688 C532 707 495 726 463 726 C442 726 424 716 410 698 L337 610 C332 604 327 595 326 588 C323 575 335 568 352 568 L352 568 Z M495 500 C465 500 438 473 431 442 C401 484 359 500 310 500 C174 500 52 386 28 249 C4 113 86 0 222 0 C272 0 319 15 364 58 C358 28 375 0 407 0 C436 0 464 24 470 53 L539 446 C544 476 524 500 495 500 L495 500 Z M403 249 C388 163 328 99 243 99 C168 99 120 163 135 249 C151 338 218 401 296 401 C383 401 418 332 403 249 L403 249 Z " />
<glyph glyph-name="acircumflex" unicode="&#xe2;" horiz-adv-x="577" d="M220 569 C248 569 269 574 299 596 L359 641 L403 596 C426 574 444 569 472 569 C488 569 502 576 505 589 C506 596 502 605 497 613 L446 696 C435 714 421 725 393 725 L357 725 C329 725 312 714 294 696 L213 613 C206 605 198 596 197 589 C194 576 205 569 220 569 L220 569 Z M495 500 C465 500 438 473 431 442 C401 484 359 500 310 500 C174 500 52 386 28 249 C4 113 86 0 222 0 C272 0 319 15 364 58 C358 28 375 0 407 0 C436 0 464 24 470 53 L539 446 C544 476 524 500 495 500 L495 500 Z M403 249 C388 163 328 99 243 99 C168 99 120 163 135 249 C151 338 218 401 296 401 C383 401 418 332 403 249 L403 249 Z " />
<glyph glyph-name="atilde" unicode="&#xe3;" horiz-adv-x="577" d="M514 724 C500 724 488 715 479 705 C465 684 453 674 431 674 C397 674 354 712 302 712 C252 712 220 681 191 627 C189 620 184 611 183 605 C180 589 193 575 212 575 C227 575 239 582 247 593 C261 613 274 623 295 623 C329 623 373 585 424 585 C474 585 507 616 536 671 C538 677 542 687 543 693 C546 709 533 724 514 724 L514 724 Z M495 500 C465 500 438 473 431 442 C401 484 359 500 310 500 C174 500 52 386 28 249 C4 113 86 0 222 0 C272 0 319 15 364 58 C358 28 375 0 407 0 C436 0 464 24 470 53 L539 446 C544 476 524 500 495 500 L495 500 Z M403 249 C388 163 328 99 243 99 C168 99 120 163 135 249 C151 338 218 401 296 401 C383 401 418 332 403 249 L403 249 Z " />
<glyph glyph-name="adieresis" unicode="&#xe4;" horiz-adv-x="619" d="M240 571 C276 571 310 599 317 635 C323 671 300 700 264 700 C227 700 194 671 187 635 C181 599 204 571 240 571 L240 571 Z M441 571 C476 571 511 599 516 635 C523 671 499 700 463 700 C427 700 394 671 388 635 C381 599 405 571 441 571 L441 571 Z M495 500 C465 500 438 473 431 442 C401 484 359 500 310 500 C174 500 52 386 28 249 C4 113 86 0 222 0 C272 0 319 15 364 58 C358 28 375 0 407 0 C436 0 464 24 470 53 L539 446 C544 476 524 500 495 500 L495 500 Z M403 249 C388 163 328 99 243 99 C168 99 120 163 135 249 C151 338 218 401 296 401 C383 401 418 332 403 249 L403 249 Z " />
<glyph glyph-name="aring" unicode="&#xe5;" horiz-adv-x="619" d="M298 570 C366 570 437 627 448 693 L448 695 C460 762 409 818 342 818 C275 818 205 762 192 695 L192 693 C180 627 231 570 298 570 L298 570 Z M272 695 C277 721 301 743 329 743 C355 743 373 721 368 695 L368 693 C364 667 338 646 312 646 C285 646 267 667 272 693 L272 695 Z M495 500 C465 500 438 473 431 442 C401 484 359 500 310 500 C174 500 52 386 28 249 C4 113 86 0 222 0 C272 0 319 15 364 58 C358 28 375 0 407 0 C436 0 464 24 470 53 L539 446 C544 476 524 500 495 500 L495 500 Z M403 249 C388 163 328 99 243 99 C168 99 120 163 135 249 C151 338 218 401 296 401 C383 401 418 332 403 249 L403 249 Z " />
<glyph glyph-name="ae" unicode="&#xe6;" horiz-adv-x="886" d="M673 500 C614 500 565 484 520 443 L520 444 C525 475 506 500 478 500 C446 500 420 474 413 442 C382 483 341 500 292 500 C156 500 34 386 10 249 C-14 113 68 0 204 0 C253 0 300 15 345 58 C341 28 358 0 389 0 C418 0 447 29 452 58 C482 15 526 0 585 0 C656 0 718 21 775 66 C802 87 798 118 787 131 C776 147 753 150 726 132 C686 107 646 99 612 99 C536 99 490 156 492 224 L792 224 C834 224 851 255 854 273 C872 372 845 500 673 500 L673 500 Z M507 309 C526 355 574 405 657 405 C740 405 764 360 757 309 L507 309 Z M385 249 C369 163 309 99 224 99 C149 99 101 163 117 249 C132 338 201 401 277 401 C364 401 399 332 385 249 L385 249 Z " />
<glyph glyph-name="ccedilla" unicode="&#xe7;" horiz-adv-x="571" d="M309 401 C346 401 382 381 404 362 C424 344 450 352 474 376 C494 398 495 427 475 445 C438 478 386 500 326 500 C188 499 52 388 28 249 C6 123 85 19 204 2 L121 -94 C115 -101 111 -109 110 -117 C105 -138 148 -161 172 -161 C192 -161 205 -151 216 -132 L301 8 C339 17 375 33 406 53 C433 73 440 102 430 124 C416 149 391 155 365 138 C335 119 291 99 255 99 C174 99 120 172 134 249 C148 326 227 401 309 401 L309 401 Z " />
<glyph glyph-name="egrave" unicode="&#xe8;" horiz-adv-x="529" d="M291 597 C310 575 328 571 356 571 C374 571 388 578 391 591 C392 598 388 607 385 613 L344 701 C336 719 322 729 301 729 C269 729 226 710 222 691 C220 680 226 670 234 661 L291 597 Z M316 500 C179 500 53 386 28 250 C5 114 91 1 228 0 C299 0 362 21 419 66 C445 87 441 118 430 131 C420 147 397 150 368 132 C330 107 290 99 256 99 C180 99 133 156 136 224 L436 224 C476 224 494 255 497 273 C514 372 488 500 316 500 L316 500 Z M299 405 C383 405 406 360 401 309 L150 309 C170 355 217 405 299 405 L299 405 Z " />
<glyph glyph-name="eacute" unicode="&#xe9;" horiz-adv-x="609" d="M447 726 C426 726 408 716 394 698 L321 610 C316 604 311 595 310 588 C307 575 319 568 336 568 C364 568 385 572 412 594 L491 658 C502 667 510 677 512 688 C516 707 479 726 447 726 L447 726 Z M316 500 C179 500 53 386 28 250 C5 114 91 1 228 0 C299 0 362 21 419 66 C445 87 441 118 430 131 C420 147 397 150 368 132 C330 107 290 99 256 99 C180 99 133 156 136 224 L436 224 C476 224 494 255 497 273 C514 372 488 500 316 500 L316 500 Z M299 405 C383 405 406 360 401 309 L150 309 C170 355 217 405 299 405 L299 405 Z " />
<glyph glyph-name="ecircumflex" unicode="&#xea;" horiz-adv-x="529" d="M455 697 C444 715 430 726 402 726 L366 726 C338 726 321 715 303 697 L222 614 C215 606 207 597 206 590 C203 577 214 570 229 570 C257 570 278 575 308 597 L368 642 L412 597 C435 575 453 570 481 570 C497 570 511 577 514 590 C515 597 511 606 506 614 L455 697 Z M316 500 C179 500 53 386 28 250 C5 114 91 1 228 0 C299 0 362 21 419 66 C445 87 441 118 430 131 C420 147 397 150 368 132 C330 107 290 99 256 99 C180 99 133 156 136 224 L436 224 C476 224 494 255 497 273 C514 372 488 500 316 500 L316 500 Z M299 405 C383 405 406 360 401 309 L150 309 C170 355 217 405 299 405 L299 405 Z " />
<glyph glyph-name="edieresis" unicode="&#xeb;" horiz-adv-x="529" d="M260 570 C296 570 330 598 336 634 C342 670 318 699 282 699 C246 699 213 670 207 634 C201 598 224 570 260 570 L260 570 Z M482 699 C446 699 413 670 407 634 C401 598 424 570 460 570 C496 570 530 598 536 634 C542 670 518 699 482 699 L482 699 Z M316 500 C179 500 53 386 28 250 C5 114 91 1 228 0 C299 0 362 21 419 66 C445 87 441 118 430 131 C420 147 397 150 368 132 C330 107 290 99 256 99 C180 99 133 156 136 224 L436 224 C476 224 494 255 497 273 C514 372 488 500 316 500 L316 500 Z M299 405 C383 405 406 360 401 309 L150 309 C170 355 217 405 299 405 L299 405 Z " />
<glyph glyph-name="igrave" unicode="&#xec;" horiz-adv-x="281" d="M212 570 C230 570 244 577 247 590 C248 597 244 606 241 612 L200 700 C192 718 178 728 157 728 C125 728 82 709 78 690 C76 679 82 669 90 660 L147 596 C166 574 184 570 212 570 L212 570 Z M171 498 C142 498 113 476 108 444 L39 54 C34 23 54 0 83 0 C114 0 142 23 147 54 L216 444 C221 476 202 498 171 498 L171 498 Z " />
<glyph glyph-name="iacute" unicode="&#xed;" horiz-adv-x="281" d="M191 568 C219 568 240 572 267 594 L346 658 C357 667 365 677 367 688 C371 707 334 726 302 726 C281 726 263 716 249 698 L176 610 C171 604 166 595 165 588 C162 575 174 568 191 568 L191 568 Z M172 498 C142 498 114 476 108 443 L39 54 C34 23 54 0 84 0 C115 0 142 23 147 54 L216 443 C222 476 203 498 172 498 L172 498 Z " />
<glyph glyph-name="icircumflex" unicode="&#xee;" horiz-adv-x="281" d="M196 642 L240 597 C263 575 281 570 310 570 C326 570 340 577 342 590 C343 597 339 606 334 614 L283 697 C272 715 258 726 230 726 L194 726 C166 726 149 715 131 697 L50 614 C43 606 35 597 34 590 C32 577 43 570 58 570 C85 570 106 575 136 597 L196 642 Z M172 499 C142 499 114 476 109 444 L40 53 C34 24 54 0 84 0 C115 0 142 24 148 53 L217 444 C222 476 203 499 172 499 L172 499 Z " />
<glyph glyph-name="idieresis" unicode="&#xef;" horiz-adv-x="281" d="M43 636 C37 600 60 572 96 572 C132 572 166 600 172 636 C178 672 154 701 118 701 C82 701 49 672 43 636 L43 636 Z M243 636 C237 600 260 572 296 572 C332 572 366 600 372 636 C378 672 354 701 318 701 C282 701 249 672 243 636 L243 636 Z M174 499 C145 499 116 476 111 444 L42 54 C36 23 57 0 86 0 C117 0 145 23 150 54 L219 444 C224 476 205 499 174 499 L174 499 Z " />
<glyph glyph-name="eth" unicode="&#xf0;" horiz-adv-x="628" d="" />
<glyph glyph-name="ntilde" unicode="&#xf1;" horiz-adv-x="571" d="M522 730 C507 730 494 721 485 710 C470 688 457 677 434 677 C398 677 352 718 297 718 C244 718 210 685 179 627 C177 620 172 610 171 604 C168 587 182 572 202 572 C218 572 230 580 239 591 C254 613 267 623 290 623 C326 623 372 583 427 583 C480 583 514 616 545 674 C547 681 552 691 553 697 C556 714 542 730 522 730 L522 730 Z M347 500 C298 500 255 481 223 444 L223 448 C226 478 206 500 178 500 C148 500 123 476 118 447 L48 53 C43 24 65 0 92 0 C122 0 149 24 154 53 L194 282 C208 358 247 404 315 404 C380 404 412 358 399 282 L359 53 C353 24 373 0 402 0 C431 0 458 24 463 53 L504 282 C529 426 459 500 347 500 L347 500 Z " />
<glyph glyph-name="ograve" unicode="&#xf2;" horiz-adv-x="625" d="M378 570 C396 570 410 577 413 590 C414 597 410 606 407 612 L366 700 C358 718 344 728 323 728 C291 728 248 709 244 690 C242 679 248 669 256 660 L313 596 C332 574 350 570 378 570 L378 570 Z M311 500 C180 500 53 390 28 250 C3 111 92 0 222 0 C355 0 482 110 507 250 C532 390 443 500 311 500 L311 500 Z M293 402 C376 402 414 336 398 249 C384 162 320 96 239 96 C160 96 120 162 134 249 C150 336 212 402 293 402 L293 402 Z " />
<glyph glyph-name="oacute" unicode="&#xf3;" horiz-adv-x="553" d="M320 571 C348 571 369 575 396 597 L475 661 C486 670 494 680 496 691 C500 710 463 729 431 729 C410 729 392 719 378 701 L305 613 C300 607 295 598 294 591 C291 578 303 571 320 571 L320 571 Z M311 500 C180 500 53 390 28 250 C3 111 92 0 222 0 C355 0 482 110 507 250 C532 390 443 500 311 500 L311 500 Z M293 402 C376 402 414 336 398 249 C384 162 320 96 239 96 C160 96 120 162 134 249 C150 336 212 402 293 402 L293 402 Z " />
<glyph glyph-name="ocircumflex" unicode="&#xf4;" horiz-adv-x="544" d="M334 638 L378 593 C401 571 419 566 447 566 C463 566 477 573 480 586 C481 593 477 602 472 610 L421 693 C410 711 396 722 368 722 L332 722 C304 722 287 711 269 693 L188 610 C181 602 173 593 172 586 C169 573 180 566 195 566 C223 566 244 571 274 593 L334 638 Z M302 500 C171 500 44 390 19 250 C-6 111 83 0 213 0 C346 0 473 110 498 250 C523 390 434 500 302 500 L302 500 Z M284 402 C367 402 405 336 389 249 C375 162 311 96 230 96 C151 96 111 162 125 249 C141 336 203 402 284 402 L284 402 Z " />
<glyph glyph-name="otilde" unicode="&#xf5;" horiz-adv-x="553" d="M246 590 C261 612 274 622 297 622 C333 622 379 582 434 582 C487 582 521 615 552 673 C554 680 559 690 560 696 C563 713 549 729 529 729 C514 729 501 720 492 709 C477 687 464 676 441 676 C405 676 359 717 304 717 C251 717 217 684 186 626 C184 619 179 609 178 603 C175 586 189 571 209 571 C225 571 237 579 246 590 L246 590 Z M311 500 C180 500 53 390 28 250 C3 111 92 0 222 0 C355 0 482 110 507 250 C532 390 443 500 311 500 L311 500 Z M293 402 C376 402 414 336 398 249 C384 162 320 96 239 96 C160 96 120 162 134 249 C150 336 212 402 293 402 L293 402 Z " />
<glyph glyph-name="odieresis" unicode="&#xf6;" horiz-adv-x="539" d="M184 634 C178 598 201 570 237 570 C273 570 307 598 313 634 C319 670 295 699 259 699 C223 699 190 670 184 634 L184 634 Z M384 634 C378 598 401 570 437 570 C473 570 507 598 513 634 C519 670 495 699 459 699 C423 699 390 670 384 634 L384 634 Z M297 500 C166 500 39 390 14 250 C-11 111 78 0 208 0 C341 0 468 110 493 250 C518 390 429 500 297 500 L297 500 Z M279 402 C362 402 400 336 384 249 C370 162 306 96 225 96 C146 96 106 162 120 249 C136 336 198 402 279 402 L279 402 Z " />
<glyph glyph-name="divide" unicode="&#xf7;" horiz-adv-x="560" d="M337 629 C299 629 263 599 256 563 L255 558 C249 521 274 491 312 491 C351 491 387 521 393 558 L394 563 C400 599 375 629 337 629 L337 629 Z M481 300 C510 300 537 324 542 352 C547 380 529 404 499 404 L95 404 C66 404 39 380 34 352 C29 324 47 300 77 300 L481 300 Z M264 213 C225 213 189 183 183 146 L182 141 C176 104 201 75 239 75 C277 75 313 104 320 141 L321 146 C327 183 302 213 264 213 L264 213 Z " />
<glyph glyph-name="oslash" unicode="&#xf8;" horiz-adv-x="640" d="M144 64 C181 24 233 1 294 1 C431 1 558 119 583 257 C592 307 587 353 570 393 L633 443 C656 462 658 478 646 494 C634 510 616 512 590 493 L534 449 C499 489 447 512 386 512 C247 512 119 396 95 257 C87 207 91 160 108 121 L52 78 C27 57 22 35 34 20 C44 4 63 1 91 23 L144 64 Z M205 197 C202 215 201 235 205 257 C219 337 285 403 365 403 C395 403 421 393 439 376 L205 197 Z M474 319 C479 300 479 280 475 257 C461 176 391 110 315 110 C284 110 258 120 238 137 L474 319 Z " />
<glyph glyph-name="ugrave" unicode="&#xf9;" horiz-adv-x="583" d="M374 571 C392 571 406 578 409 591 C410 598 406 607 403 613 L362 701 C354 719 340 729 319 729 C287 729 244 710 240 691 C238 680 244 670 252 661 L309 597 C328 575 346 571 374 571 L374 571 Z M266 96 C206 96 168 131 183 218 L223 447 C229 475 210 500 180 500 C151 500 123 475 117 447 L77 218 C52 74 123 0 249 0 C372 0 471 74 497 218 L537 447 C541 475 520 500 492 500 C462 500 435 475 431 447 L391 218 C375 131 322 96 266 96 L266 96 Z " />
<glyph glyph-name="uacute" unicode="&#xfa;" horiz-adv-x="613" d="M336 568 C364 568 385 572 412 594 L491 658 C502 667 510 677 512 688 C516 707 479 726 447 726 C426 726 408 716 394 698 L321 610 C316 604 311 595 310 588 C307 575 319 568 336 568 L336 568 Z M266 96 C206 96 168 131 183 218 L223 447 C229 475 210 500 180 500 C151 500 123 475 117 447 L77 218 C52 74 123 0 249 0 C372 0 471 74 497 218 L537 447 C541 475 520 500 492 500 C462 500 435 475 431 447 L391 218 C375 131 322 96 266 96 L266 96 Z " />
<glyph glyph-name="ucircumflex" unicode="&#xfb;" horiz-adv-x="583" d="M371 640 L415 595 C438 573 456 568 484 568 C500 568 514 575 517 588 C518 595 514 604 509 612 L458 695 C447 713 433 724 405 724 L369 724 C341 724 324 713 306 695 L225 612 C218 604 210 595 209 588 C206 575 217 568 232 568 C260 568 281 573 311 595 L371 640 Z M266 96 C206 96 168 131 183 218 L223 447 C229 475 210 500 180 500 C151 500 123 475 117 447 L77 218 C52 74 123 0 249 0 C372 0 471 74 497 218 L537 447 C541 475 520 500 492 500 C462 500 435 475 431 447 L391 218 C375 131 322 96 266 96 L266 96 Z " />
<glyph glyph-name="udieresis" unicode="&#xfc;" horiz-adv-x="613" d="M199 634 C193 598 216 570 252 570 C288 570 322 598 328 634 C334 670 310 699 274 699 C238 699 205 670 199 634 L199 634 Z M399 634 C393 598 416 570 452 570 C488 570 522 598 528 634 C534 670 510 699 474 699 C438 699 405 670 399 634 L399 634 Z M266 96 C206 96 168 131 183 218 L223 447 C229 475 210 500 180 500 C151 500 123 475 117 447 L77 218 C52 74 123 0 249 0 C372 0 471 74 497 218 L537 447 C541 475 520 500 492 500 C462 500 435 475 431 447 L391 218 C375 131 322 96 266 96 L266 96 Z " />
<glyph glyph-name="yacute" unicode="&#xfd;" horiz-adv-x="602" d="M336 568 C364 568 385 572 412 594 L491 658 C502 667 510 677 512 688 C516 707 479 726 447 726 C426 726 408 716 394 698 L321 610 C316 604 311 595 310 588 C307 575 319 568 336 568 L336 568 Z M492 500 C462 500 436 475 431 447 L391 224 C373 119 323 101 267 101 C208 101 167 126 184 223 L224 447 C229 475 210 500 180 500 C152 500 123 475 118 447 L77 218 C52 73 123 0 249 0 C288 0 323 10 355 27 C338 -55 281 -85 218 -85 C188 -85 166 -72 151 -62 C127 -48 101 -46 77 -75 C54 -103 59 -132 85 -150 C107 -166 149 -184 197 -184 C330 -184 440 -103 467 50 L537 447 C542 475 520 500 492 500 L492 500 Z " />
<glyph glyph-name="thorn" unicode="&#xfe;" horiz-adv-x="660" d="" />
<glyph glyph-name="ydieresis" unicode="&#xff;" horiz-adv-x="602" d="M249 572 C285 572 319 600 325 636 C331 672 307 701 271 701 C235 701 202 672 196 636 C190 600 213 572 249 572 L249 572 Z M449 572 C485 572 519 600 525 636 C531 672 507 701 471 701 C435 701 402 672 396 636 C390 600 413 572 449 572 L449 572 Z M492 500 C462 500 436 475 431 447 L391 224 C373 119 323 101 267 101 C208 101 167 126 184 223 L224 447 C229 475 210 500 180 500 C152 500 123 475 118 447 L77 218 C52 73 123 0 249 0 C288 0 323 10 355 27 C338 -55 281 -85 218 -85 C188 -85 166 -72 151 -62 C127 -48 101 -46 77 -75 C54 -103 59 -132 85 -150 C107 -166 149 -184 197 -184 C330 -184 440 -103 467 50 L537 447 C542 475 520 500 492 500 L492 500 Z " />
<glyph glyph-name="OE" unicode="&#x152;" horiz-adv-x="1101" d="M748 700 C716 700 687 676 682 645 L674 597 C630 673 554 711 455 711 C257 711 77 541 43 351 C6 140 125 -9 329 -9 C427 -9 517 35 588 112 L578 55 C573 25 592 0 624 0 L950 0 C979 0 1008 20 1014 50 C1019 81 997 101 968 101 L697 101 L733 305 L966 305 C996 305 1024 325 1030 356 C1035 385 1014 406 984 406 L751 406 L785 599 L1056 599 C1085 599 1114 619 1120 650 C1125 681 1103 700 1074 700 L748 700 Z M623 351 C600 224 489 94 347 94 C202 94 134 219 157 351 C179 481 292 608 437 608 C579 608 646 483 623 351 L623 351 Z " />
<glyph glyph-name="oe" unicode="&#x153;" horiz-adv-x="968" d="M641 0 C714 0 778 21 836 67 C863 89 858 119 848 134 C837 150 796 153 770 131 C742 111 696 102 660 105 C592 111 549 157 547 218 L872 218 C909 218 930 243 935 268 C952 413 866 509 731 509 C641 509 557 463 500 392 C475 453 417 509 318 509 C179 509 53 393 28 254 C4 118 87 -2 228 -2 C326 -2 404 56 453 115 C485 46 552 0 641 0 L641 0 Z M714 413 C802 406 844 346 846 305 L557 305 C572 347 626 409 714 413 L714 413 Z M138 254 C152 334 218 400 299 400 C376 400 422 334 408 254 C394 173 324 107 247 107 C166 107 123 169 138 254 L138 254 Z " />
<glyph glyph-name="Scaron" unicode="&#x160;" horiz-adv-x="587" d="M413 865 L369 910 C346 932 328 937 300 937 C284 937 270 930 267 917 C266 910 270 901 275 893 L326 810 C337 792 351 781 379 781 L415 781 C443 781 460 792 478 810 L559 893 C566 901 574 910 575 917 C578 930 567 937 552 937 C524 937 503 932 473 910 L413 865 Z M244 -8 C135 -8 65 27 17 109 C4 134 -4 167 31 193 C69 222 98 209 114 185 C153 127 194 96 262 96 C342 96 419 136 433 212 C441 265 414 292 300 316 C214 335 83 372 108 515 C127 623 244 709 387 709 C464 709 522 684 564 645 C583 626 586 596 558 568 C528 537 503 540 482 559 C455 582 417 609 357 609 C275 609 224 564 217 519 C207 466 232 437 341 413 C458 387 567 346 543 217 C519 80 370 -8 244 -8 L244 -8 Z " />
<glyph glyph-name="scaron" unicode="&#x161;" horiz-adv-x="497" d="" />
<glyph glyph-name="Ydieresis" unicode="&#x178;" horiz-adv-x="716" d="M216 855 C210 819 233 792 269 792 C305 792 339 819 345 855 C352 891 327 920 291 920 C255 920 223 891 216 855 L216 855 Z M416 855 C410 819 433 792 469 792 C506 792 539 819 546 855 C552 891 528 920 492 920 C456 920 423 891 416 855 L416 855 Z M354 348 L609 629 C631 653 631 682 609 700 C588 718 554 714 530 688 L360 502 L317 449 L292 502 L189 688 C176 714 143 718 114 700 C87 682 76 653 91 629 L245 348 L191 46 C185 15 208 -9 236 -9 C267 -9 296 15 301 46 L354 348 Z " />
<glyph glyph-name="florin" unicode="&#x192;" horiz-adv-x="476" d="M28 -7 C119 -7 183 36 221 143 L296 356 L396 356 C425 356 450 378 455 406 C461 434 443 457 413 457 L332 457 L359 531 C378 586 407 609 453 609 C463 609 473 607 477 607 C505 607 531 629 536 657 C540 685 523 705 500 708 C483 710 467 711 448 711 C340 711 283 657 246 556 L209 457 L159 457 C130 457 103 434 98 406 C94 378 113 356 141 356 L175 356 L106 161 C90 117 67 97 30 94 C1 92 -24 71 -28 44 C-33 13 -13 -7 28 -7 L28 -7 Z " />
<glyph glyph-name="circumflex" unicode="&#x2c6;" horiz-adv-x="500" d="M393 662 L437 617 C460 595 478 590 506 590 C522 590 536 597 539 610 C540 617 536 626 531 634 L480 717 C469 735 455 746 427 746 L391 746 C363 746 346 735 328 717 L247 634 C240 626 232 617 231 610 C228 597 239 590 254 590 C282 590 303 595 333 617 L393 662 Z " />
<glyph glyph-name="tilde" unicode="&#x2dc;" horiz-adv-x="500" d="M225 603 C240 625 253 635 276 635 C312 635 358 595 413 595 C466 595 500 628 531 686 C533 693 538 703 539 709 C542 726 528 742 508 742 C493 742 480 733 471 722 C456 700 443 689 420 689 C384 689 338 730 283 730 C230 730 196 697 165 639 C163 632 158 622 157 616 C154 599 168 584 188 584 C204 584 216 592 225 603 L225 603 Z " />
<glyph glyph-name="endash" unicode="&#x2013;" horiz-adv-x="468" d="M395 259 C427 259 457 280 462 311 C467 343 445 364 414 364 L103 364 C71 364 41 343 36 311 C31 280 53 259 84 259 L395 259 Z " />
<glyph glyph-name="emdash" unicode="&#x2014;" horiz-adv-x="700" d="M597 259 C628 259 657 280 663 311 C668 343 646 364 615 364 L102 364 C71 364 42 343 36 311 C31 280 53 259 84 259 L597 259 Z " />
<glyph glyph-name="quoteleft" unicode="&#x2018;" horiz-adv-x="200" d="M243 676 C245 692 238 704 216 704 C188 704 145 688 115 661 C78 630 51 583 39 515 L37 505 C28 451 50 417 93 417 C135 417 167 445 174 484 L175 492 C181 528 157 551 129 560 C136 604 165 635 213 649 C228 653 240 662 243 676 L243 676 Z " />
<glyph glyph-name="quoteright" unicode="&#x2019;" horiz-adv-x="168" d="M8 446 C6 430 13 418 35 418 C62 418 105 434 136 461 C172 492 199 539 211 607 L213 617 C222 671 200 705 157 705 C115 705 83 677 76 638 L75 630 C69 594 93 571 121 563 C114 518 84 487 37 473 C23 469 11 460 8 446 L8 446 Z " />
<glyph glyph-name="quotesinglbase" unicode="&#x201a;" horiz-adv-x="238" d="M3 -117 C1 -132 8 -145 30 -145 C57 -145 100 -128 131 -102 C167 -70 194 -24 206 44 L208 55 C217 109 196 143 152 143 C110 143 78 113 72 76 L70 68 C64 32 88 7 116 0 C109 -44 79 -75 32 -90 C18 -93 6 -103 3 -117 L3 -117 Z " />
<glyph glyph-name="quotedblleft" unicode="&#x201c;" horiz-adv-x="432" d="M242 676 C245 692 237 704 216 704 C187 704 146 688 115 661 C77 630 51 583 39 515 L38 505 C28 451 49 417 94 417 C134 417 167 445 173 484 L174 492 C181 528 157 551 130 560 C135 604 165 635 214 649 C228 653 240 662 242 676 L242 676 Z M474 676 C478 692 468 704 447 704 C419 704 378 688 346 661 C309 630 283 583 271 515 L269 505 C259 451 281 417 326 417 C366 417 399 445 406 484 L407 492 C413 528 390 551 362 560 C367 604 397 635 446 649 C461 653 472 662 474 676 L474 676 Z " />
<glyph glyph-name="quotedblright" unicode="&#x201d;" horiz-adv-x="380" d="M9 446 C5 430 14 418 35 418 C63 418 104 434 136 461 C173 492 199 539 211 607 L213 617 C223 671 200 705 156 705 C116 705 83 677 76 638 L75 630 C69 594 92 571 120 563 C115 518 85 487 36 473 C22 469 11 460 9 446 L9 446 Z M240 446 C237 430 245 418 266 418 C295 418 336 434 367 461 C405 492 432 539 443 607 L444 617 C454 671 433 705 388 705 C348 705 315 677 309 638 L308 630 C301 594 325 571 352 563 C347 518 317 487 268 473 C253 469 242 460 240 446 L240 446 Z " />
<glyph glyph-name="quotedblbase" unicode="&#x201e;" horiz-adv-x="470" d="M4 -117 C0 -132 9 -145 30 -145 C58 -145 100 -128 131 -102 C168 -70 194 -24 206 44 L208 55 C218 109 197 143 151 143 C111 143 78 113 71 76 L70 68 C64 32 87 7 115 0 C110 -44 80 -75 31 -90 C17 -93 6 -103 4 -117 L4 -117 Z M235 -117 C232 -132 240 -145 260 -145 C290 -145 331 -128 362 -102 C400 -70 425 -24 438 44 L440 55 C449 108 428 143 383 143 C343 143 310 113 304 76 L303 68 C296 32 319 7 347 0 C342 -44 312 -75 263 -90 C248 -93 237 -103 235 -117 L235 -117 Z " />
<glyph glyph-name="bullet" unicode="&#x2022;" horiz-adv-x="410" d="M95 402 C95 415 104 432 115 437 L202 487 C213 494 231 494 242 487 L329 437 C340 432 350 415 350 402 L350 302 C350 289 341 273 329 266 L243 216 C231 210 213 210 203 216 L115 266 C105 273 95 289 95 302 L95 402 Z " />
<glyph glyph-name="ellipsis" unicode="&#x2026;" horiz-adv-x="835" d="M52 65 C45 24 72 -9 113 -9 C154 -9 194 24 201 65 C208 106 180 140 140 140 C98 140 59 106 52 65 L52 65 Z M339 65 C331 24 359 -9 400 -9 C441 -9 481 24 488 65 C496 106 467 140 426 140 C385 140 346 106 339 65 L339 65 Z M626 65 C619 24 646 -9 686 -9 C728 -9 768 24 774 65 C782 106 754 140 713 140 C672 140 633 106 626 65 L626 65 Z " />
<glyph glyph-name="guilsinglleft" unicode="&#x2039;" horiz-adv-x="311" d="M171 262 L302 402 C313 413 319 423 322 436 C325 464 308 486 280 486 C261 486 245 476 235 464 L77 299 C65 287 58 277 54 263 C52 250 57 240 64 228 L162 66 C169 52 184 42 202 42 C229 42 255 65 260 92 C262 104 258 117 252 126 L171 262 Z " />
<glyph glyph-name="guilsinglright" unicode="&#x203a;" horiz-adv-x="311" d="M185 266 L54 126 C43 115 37 105 34 92 C31 64 48 42 76 42 C95 42 111 52 121 64 L279 229 C291 241 298 251 302 265 C304 278 299 288 292 300 L194 462 C187 476 172 486 154 486 C127 486 101 463 96 436 C94 424 98 411 104 402 L185 266 Z " />
<glyph glyph-name="euro" unicode="&#x20ac;" horiz-adv-x="625" d="M488 706 C335 706 188 599 120 451 L88 451 C64 451 40 431 36 406 C32 383 49 362 72 362 L90 362 L87 348 C86 344 85 339 86 335 L68 335 C43 335 20 314 16 291 C12 266 28 246 52 246 L84 246 C100 98 209 -9 361 -9 C402 -9 444 -2 486 12 C514 24 532 55 526 83 C519 109 492 123 462 112 C435 102 407 98 381 98 C288 98 217 159 198 246 L431 246 C455 246 479 266 483 291 C488 314 471 335 447 335 L193 335 C193 339 194 344 195 348 C196 353 197 358 197 362 L453 362 C475 362 500 383 505 406 C509 431 491 451 469 451 L234 451 C284 538 376 599 470 599 C494 599 516 596 539 588 C565 578 597 592 612 619 C628 647 618 679 593 689 C560 699 524 706 488 706 L488 706 Z " />
<glyph glyph-name="trademark" unicode="&#x2122;" horiz-adv-x="590" d="M130 652 L91 424 C89 412 98 401 110 401 C124 401 136 412 138 424 L178 652 L246 652 C258 652 271 664 273 677 C276 690 266 700 254 700 L71 700 C58 700 47 690 45 677 C42 664 50 652 63 652 L130 652 Z M530 605 L497 424 C495 412 504 401 517 401 C531 401 544 412 546 424 L590 677 C593 688 591 700 569 700 C562 700 554 696 548 690 L443 572 L379 690 C375 696 371 700 360 700 C347 700 336 690 333 677 L288 424 C286 412 296 401 307 401 C320 401 333 412 335 424 L367 605 L413 519 C418 513 424 509 430 509 C439 509 446 512 454 519 L530 605 Z " />
</font>
</svg>
